<?xml version="1.0" standalone="no"?>
<!DOCTYPE svg PUBLIC "-//W3C//DTD SVG 1.1//EN" "http://www.w3.org/Graphics/SVG/1.1/DTD/svg11.dtd" >
<svg>
<metadata>
Created by FontForge 20090914 at Mon Dec 14 19:03:27 2015
 By www-data
Copyright (c) 1988, 1990 Adobe Systems Incorporated.  All Rights Reserved.Helvetica is a registered trademark of Linotype AG and/or its subsidiaries.
</metadata>
<defs>
<font id="HelveticaNeueMedium" horiz-adv-x="1138" >
  <font-face 
    font-family="HelveticaNeue"
    font-weight="400"
    font-stretch="normal"
    units-per-em="2048"
    panose-1="0 0 4 0 0 0 0 0 0 0"
    ascent="1638"
    descent="-410"
    x-height="1059"
    cap-height="1462"
    bbox="-115 -453.001 2154 1949"
    underline-thickness="102"
    underline-position="-664"
    unicode-range="U+000D-U+25FC"
  />
<missing-glyph horiz-adv-x="748" 
d="M68 0v1365h544v-1365h-544zM136 68h408v1229h-408v-1229z" />
    <glyph glyph-name=".notdef" horiz-adv-x="748" 
d="M68 0v1365h544v-1365h-544zM136 68h408v1229h-408v-1229z" />
    <glyph glyph-name="uni000D" unicode="&#xd;" horiz-adv-x="569" 
 />
    <glyph glyph-name="space" unicode=" " horiz-adv-x="569" 
 />
    <glyph glyph-name="exclam" unicode="!" horiz-adv-x="569" 
d="M147 0v256h275v-256h-275zM158 1040v422h256v-422l-68 -632h-121z" />
    <glyph glyph-name="quotedbl" unicode="&#x22;" horiz-adv-x="909" 
d="M170 885v577h209v-577h-209zM530 885v577h209v-577h-209z" />
    <glyph glyph-name="numbersign" unicode="#" 
d="M70 430v154h215l37 266h-193v154h213l59 430h166l-61 -430h227l60 430h165l-61 -430h176v-154h-196l-37 -266h174v-154h-195l-61 -430h-164l59 430h-225l-61 -430h-164l59 430h-192zM449 584h227l37 266h-228z" />
    <glyph glyph-name="dollar" unicode="$" 
d="M35 444l233.001 -0.000976562c-2.66699 -191.333 84.666 -289.333 261.999 -294v495c-143.333 39.333 -248.333 85 -315 137c-100 75.333 -149.667 180 -149 314c0 124 47 223.667 141 299c87.333 68 195 102 323 102v160h88v-160c130 0 236 -32.667 318 -98
c87.333 -70.667 131 -171 131 -301h-233c-6.66699 143.333 -78.667 215 -216 215v-432c152.667 -40.667 264.667 -88 336 -142c100 -75.333 150 -179.666 150 -312.999c0 -146 -47 -259.333 -141 -340c-84.667 -74 -199.667 -114.333 -345 -121v-160h-88v160
c-151.333 2.66699 -272 46 -362 130s-134.333 200.333 -133 349zM299.001 1112c0 -101.333 77 -171 231 -209v410c-154 0 -231 -67 -231 -201zM618.001 149.999c168 12 251.999 93 251.999 243c0 69.333 -25.667 123.333 -77 162c-37.333 27.333 -95.666 51.333 -174.999 72
v-477z" />
    <glyph glyph-name="percent" unicode="%" horiz-adv-x="2048" 
d="M168 1055c0 118.667 27.333 214 82 286c60 80.667 146.667 121 260 121s200 -40.333 260 -121c54.667 -72.667 82 -168 82 -286c0 -121.333 -26 -217 -78 -287c-58.667 -80.667 -146.667 -121 -264 -121s-205.333 40.333 -264 121c-52 69.333 -78 165 -78 287zM352 1055
c0 -182.667 52 -274.333 156 -275c106.667 0 160 91.667 160 275c0 182.667 -53.333 274 -160 274c-104 0 -156 -91.333 -156 -274zM532 -48.999l797 1532h156l-793 -1532h-160zM1196 379.001c0 118.667 27.333 214.334 82 287.001c60 80.667 146.667 120.667 260 120
c113.333 0 200 -40 260 -120c54.667 -72.667 82 -168.334 82 -287.001c0 -121.333 -26 -217 -78 -287c-58.667 -80.667 -146.667 -121 -264 -121s-205.333 40.333 -264 121c-52 69.333 -78 165 -78 287zM1380 379.001c0 -182.667 52 -274.333 156 -275
c106.667 0 160 91.667 160 275c0 182.667 -53.333 274 -160 274c-104 0 -156 -91.333 -156 -274z" />
    <glyph glyph-name="ampersand" unicode="&#x26;" horiz-adv-x="1327" 
d="M66 406c0 168 111.667 309.003 335 423.003c-98 124 -147 230.667 -147 320c0 104 34.5 188 103.5 252s153.833 96 254.5 96c101.333 0 186 -29.333 254 -88c74 -64 111 -151.333 111 -262c0 -152.667 -88 -276.334 -264 -371.001l227 -274
c22 61.333 37 126.666 45 195.999h205c-16.667 -144.667 -55 -264 -115 -358l281 -340h-287l-133 164c-105.333 -128.667 -242 -193 -410 -193c-136.667 0 -247.5 38.667 -332.5 116s-127.5 183.666 -127.5 318.999zM299 401.003c0 -76.667 21.832 -136.667 65.499 -180
s100.5 -65 170.5 -65c74 0 135.333 19.667 184 59c22 16 52.667 50.667 92 104l-287 357c-91.333 -56 -139.666 -86.667 -144.999 -92c-53.333 -46.667 -80 -107.667 -80 -183zM462.999 1161c0 -40.667 15.666 -84.332 46.999 -130.999l86 -112c56 38 95.667 70.667 119 98
c35.333 40.667 53 87 53 139c0 49.333 -13.667 89.666 -41 120.999s-63.666 47 -108.999 47c-44 0 -80.833 -15 -110.5 -45s-44.5 -69 -44.5 -117z" />
    <glyph glyph-name="quotesingle" unicode="'" horiz-adv-x="569" 
d="M180 885v577h209v-577h-209z" />
    <glyph glyph-name="parenleft" unicode="(" horiz-adv-x="569" 
d="M100 553c0 326 98.333 640.667 295 944h191c-168 -300.667 -252 -615.334 -252 -944.001c0 -345.333 84 -660 252 -944h-191c-196.667 312.667 -295 627.334 -295 944.001z" />
    <glyph glyph-name="parenright" unicode=")" horiz-adv-x="569" 
d="M-16 -391c168 297.333 252 611.334 252 942.001c0 345.333 -84 660.666 -252 945.999h190c196.667 -314 295 -629.333 295 -946c0 -328 -98.333 -642 -295 -942h-190z" />
    <glyph glyph-name="asterisk" unicode="*" horiz-adv-x="757" 
d="M39 1171l45 134l225 -88v245h140v-245l223 88l49 -134l-234 -77l144 -193l-109 -80l-145 201l-139 -201l-115 80l143 193z" />
    <glyph glyph-name="plus" unicode="+" horiz-adv-x="1228" 
d="M98 414v209h412v413h209v-413h411v-209h-411v-414h-209v414h-412z" />
    <glyph glyph-name="comma" unicode="," horiz-adv-x="569" 
d="M141 0l-0.000976562 275.998h285v-276c0 -83.333 -25.667 -154 -77 -212s-117.666 -95.333 -198.999 -112v125c44 10.667 77.5 34.834 100.5 72.501s33.833 79.834 32.5 126.501h-142z" />
    <glyph glyph-name="hyphen" unicode="-" horiz-adv-x="796" 
d="M100 446v222h596v-222h-596z" />
    <glyph glyph-name="period" unicode="." horiz-adv-x="569" 
d="M141 0v276h285v-276h-285z" />
    <glyph glyph-name="slash" unicode="/" horiz-adv-x="720" 
d="M-45 -35l588 1532h223l-588 -1532h-223z" />
    <glyph glyph-name="zero" unicode="0" 
d="M74 717c0 204.667 31.333 369.668 94 495.001c81.333 166.667 215 250 401 250s320 -83.333 402 -250c62.667 -125.333 94 -290.333 94 -495s-31.333 -370 -94 -496c-82 -166.667 -216 -250 -402 -250s-319.667 83.333 -401 250c-62.667 125.333 -94 290.666 -94 495.999
zM307 717.001c0 -367.333 87.333 -551 262 -551s262 183.667 262 551s-87.333 551 -262 551s-262 -183.667 -262 -551z" />
    <glyph glyph-name="one" unicode="1" 
d="M109 1012v183.999c106.667 -1.33301 196.667 16.334 270 53.001c82 42 131 103.667 147 185h191v-1434h-256v1012h-352z" />
    <glyph glyph-name="two" unicode="2" 
d="M80 0c1.33301 217.333 106.332 398.335 314.999 543.002l195 131c74 52 129.333 101 166 147c46.667 60 70.334 124.333 71.001 193c1.33301 65.333 -13.667 120.666 -45 165.999c-40.667 58.667 -106 88 -196 88c-157.333 0 -239.333 -119.667 -246 -359h-234
c0 164 42.333 296 127 396c88.667 105.333 211 157.666 367 156.999c158.667 0 279.667 -50.333 363 -151c65.333 -80.667 98 -177 98 -289c0 -173.333 -106.667 -334.333 -320 -483l-237 -160c-78 -60 -126 -116.667 -144 -170h699v-209h-979z" />
    <glyph glyph-name="three" unicode="3" 
d="M63 471l233.999 0.00292969c-2.66699 -90 19 -162.333 65 -217c48 -58.667 116.333 -88 205 -88c80.667 0 146.667 22.833 198 68.5s77 108.167 77 187.5c0 173.333 -125 254.666 -375 243.999v174c88.667 -4 161 11 217 45c66.667 38 100 98 100 180
c0 60 -20.833 108.833 -62.5 146.5s-95.167 56.5 -160.5 56.5c-76.667 0 -136.167 -29 -178.5 -87s-61.833 -126.667 -58.5 -206h-234c6.66699 143.333 51 259.333 133 348c87.333 92.667 201.333 139 342 139c121.333 0 224.333 -32 309 -96
c95.333 -70.667 143.333 -166.334 144 -287.001c0 -157.333 -67.667 -259.666 -203 -306.999v-4c80.667 -16.667 144.167 -57.334 190.5 -122.001s69.5 -143.334 69.5 -236.001c0 -131.333 -50.333 -238 -151 -320c-95.333 -79.333 -214.333 -119 -357 -119
c-161.333 0 -286 46 -374 138c-83.333 87.333 -126.666 208 -129.999 362z" />
    <glyph glyph-name="four" unicode="4" 
d="M49 340v231l615 863h221v-910h184v-184h-184v-340h-221v340h-615zM229 524h435v631h-5z" />
    <glyph glyph-name="five" unicode="5" 
d="M72 408l233 -0.000976562c6.66699 -76.667 33.334 -136.167 80.001 -178.5s108 -63.5 184 -63.5c177.333 0 266.333 105 267 315c0 84.667 -22 154.334 -66 209.001c-49.333 60 -118.333 90 -207 90c-121.333 0 -198.333 -43.667 -231 -131h-234l154 785h741v-209h-567
l-74 -365l4 -4c65.333 72.667 153.666 109 264.999 109c139.333 0 249.666 -46 330.999 -138c78 -87.333 117 -201.333 117 -342c0 -132.667 -38.333 -246.667 -115 -342c-91.333 -114.667 -218.333 -172 -381 -172c-143.333 0 -260 37 -350 111
c-95.333 78 -145.666 186.667 -150.999 326z" />
    <glyph glyph-name="six" unicode="6" 
d="M70 721c0 199.333 39.3359 366.002 118.003 500.002c95.333 161.333 236 241.666 422 240.999c116 0 215.667 -36.5 299 -109.5s127.666 -166.833 132.999 -281.5h-233c-5.33301 58.667 -26.5 106.167 -63.5 142.5s-85.5 54.5 -145.5 54.5c-110.667 0 -190 -58 -238 -174
c-28.667 -69.333 -48.334 -175.333 -59.001 -318l4 -4c64 113.333 167 170 309 170c139.333 0 250.666 -45.667 333.999 -137c79.333 -88.667 119 -203.334 119 -344.001s-44 -257.5 -132 -350.5s-203 -139.5 -345 -139.5c-195.333 0 -335.333 73 -420 219
c-68 118.667 -102 295.667 -102 531zM326.003 465.002c0 -83.333 21.668 -152.334 65.001 -207.001c48 -61.333 112.333 -92 193 -92c79.333 0 142 30.667 188 92c42 56 63.333 125 64 207c0 82 -21.833 151.333 -65.5 208s-105.834 85 -186.501 85
c-82 0 -146.333 -29.333 -193 -88c-44 -53.333 -65.667 -121.666 -65 -204.999z" />
    <glyph glyph-name="seven" unicode="7" 
d="M72 1225v209.001h981v-195c-323.333 -366 -501.666 -779 -534.999 -1239h-256c15.333 217.333 74.666 436.333 177.999 657c95.333 203.333 220.333 392.666 375 567.999h-743z" />
    <glyph glyph-name="eight" unicode="8" 
d="M63 422c0 88.667 23.667 164 71 226s111.333 103.333 192 124v2c-135.333 53.333 -203 152.333 -203 297c0 122.667 38.833 218.5 116.5 287.5s187.5 103.5 329.5 103.5s252 -34.5 330 -103.5s117 -164.833 117 -287.5c0 -144.667 -67.667 -243.667 -203 -297v-2
c80.667 -20.667 144.5 -62 191.5 -124s70.5 -137.333 70.5 -226c0 -138 -47.167 -247.667 -141.5 -329s-215.833 -122 -364.5 -122s-270.167 40.667 -364.5 122s-141.5 191 -141.5 329zM297 422c0 -82 25.5 -146.833 76.5 -194.5s116.167 -71.5 195.5 -71.5
s144.666 23.833 195.999 71.5s77 112.5 77 194.5c0 78 -25.667 139.5 -77 184.5s-116.666 67.5 -195.999 67.5s-144.5 -22.5 -195.5 -67.5s-76.5 -106.5 -76.5 -184.5zM344 1059c0 -65.333 20.8311 -116.833 62.498 -154.5s95.834 -56.5 162.501 -56.5s121 18.833 163 56.5
s63 89.167 63 154.5c0 68 -21.333 121.5 -64 160.5s-96.667 58.5 -162 58.5s-119.166 -19.5 -161.499 -58.5s-63.5 -92.5 -63.5 -160.5z" />
    <glyph glyph-name="nine" unicode="9" 
d="M70 973c0 143.333 43.999 260.668 131.999 352.001s208.333 137 361 137c188.667 0 324 -72.333 406 -217c66.667 -120 100 -297.333 100 -532c0 -199.333 -39.667 -366 -119 -500c-95.333 -161.333 -236 -242 -422 -242c-116 0 -215.667 36.5 -299 109.5
s-127.666 166.833 -132.999 281.5h234c5.33301 -58.667 26.5 -106 63.5 -142s85.5 -54 145.5 -54c110.667 0 189.667 58.667 237 176c28.667 68 48.667 173 60 315l-5 5c-64 -114.667 -167 -172.334 -309 -173.001c-135.333 0 -244.5 44.167 -327.5 132.5
s-124.5 205.5 -124.5 351.5zM302.999 975.002c0 -84.667 20.6689 -154.335 62.002 -209.002c45.333 -61.333 108 -92 188 -92c83.333 0 148.333 30.667 195 92c44 54.667 65.667 124.334 65 209.001c0 82 -22.5 151.333 -67.5 208s-109.167 85 -192.5 85
c-80.667 0 -143.334 -29.333 -188.001 -88c-40.667 -53.333 -61.334 -121.666 -62.001 -204.999z" />
    <glyph glyph-name="colon" unicode=":" horiz-adv-x="569" 
d="M141 0v276h285v-276h-285zM141 760v276h285v-276h-285z" />
    <glyph glyph-name="semicolon" unicode=";" horiz-adv-x="569" 
d="M141 0l-0.000976562 275.998h285v-276c0 -83.333 -25.667 -154 -77 -212s-117.666 -95.333 -198.999 -112v125c44 10.667 77.5 34.834 100.5 72.501s33.833 79.834 32.5 126.501h-142zM140.999 759.998v276h285v-276h-285z" />
    <glyph glyph-name="less" unicode="&#x3c;" horiz-adv-x="1228" 
d="M94 444v148l1041 461v-209l-766 -326l766 -325v-209z" />
    <glyph glyph-name="equal" unicode="=" horiz-adv-x="1228" 
d="M98 207v209h1032v-209h-1032zM98 621v208h1032v-208h-1032z" />
    <glyph glyph-name="greater" unicode="&#x3e;" horiz-adv-x="1228" 
d="M94 -16v209l766 325l-766 326v209l1041 -461v-148z" />
    <glyph glyph-name="question" unicode="?" 
d="M100 997c-1.33301 151.333 42.833 272.502 132.5 363.502s209.5 136.5 359.5 136.5c130 0 236.833 -36.833 320.5 -110.5s125.5 -174.834 125.5 -303.501c0 -84.667 -19 -155.667 -57 -213c-20.667 -32.667 -61.667 -75 -123 -127
c-65.333 -54.667 -108.333 -99 -129 -133c-34 -53.333 -51 -124.333 -51 -213h-221c0 113.333 13 200.666 39 261.999c22 52 62 103.333 120 154c64 56 103 92.333 117 109c32.667 42 49 93 49 153c0 75.333 -23.667 134 -71 176c-39.333 34 -82.333 51.333 -129 52
c-165.333 -0.666992 -248 -102.667 -248 -306h-234zM425.999 0.00195312v256h274v-256h-274z" />
    <glyph glyph-name="at" unicode="@" horiz-adv-x="1638" 
d="M100 758c0 204.667 74.168 378.998 222.501 522.998s324.833 216 529.5 216c187.333 0 347 -56 479 -168c138 -116 207 -260 207 -432c0 -186 -60 -339 -180 -459c-100 -101.333 -201 -151.666 -303 -150.999c-76.667 0 -117 39.667 -121 119h-4
c-69.333 -78 -146 -117 -230 -117c-84.667 0 -155.667 31.333 -213 94s-86 138.334 -86 227.001c0 136.667 41 257.667 123 363c88.667 112 197.334 168 326.001 168c105.333 0 181.666 -49.333 228.999 -148l37 117h144l-148 -539c-10.667 -42 -16 -72.667 -16 -92
c0 -32.667 12.333 -49 37 -49c65.333 0 125.333 42.333 180 127c57.333 90 86 195 86 315c0 148.667 -54 269 -162 361c-102.667 87.333 -231 131 -385 131c-172 0 -313 -59 -423 -177s-165 -263.667 -165 -437c0 -196.667 58 -355.334 174 -476.001
c112 -117.333 256 -176 432 -176c190 0 343.667 67.667 461 203h144c-65.333 -105.333 -152.333 -187.666 -261 -246.999s-226 -89 -352 -89c-214.667 0 -394 73.667 -538 221c-148.667 150 -223.334 340.667 -224.001 572zM575.001 628.998
c0 -54.667 14.999 -99.5 44.999 -134.5s69.667 -52.5 119 -52.5c76.667 0 143.667 42.333 201 127c53.333 76.667 80 156 80 238c0 48 -16 90 -48 126s-70 54 -114 54c-79.333 0 -147.666 -40.333 -204.999 -121c-52 -74 -78 -153 -78 -237z" />
    <glyph glyph-name="A" unicode="A" horiz-adv-x="1366" 
d="M-14 0l561 1462h272l563 -1462h-274l-137 387h-584l-137 -387h-264zM457 582h446l-219 628h-6z" />
    <glyph glyph-name="B" unicode="B" horiz-adv-x="1441" 
d="M156 0v1462h710c135.333 0 241.5 -30.667 318.5 -92s115.5 -151.333 115.5 -270c0 -147.333 -69.333 -251.333 -208 -312v-4c182.667 -39.333 274 -164.666 274 -375.999c0 -121.333 -42.333 -217.666 -127 -288.999c-94 -79.333 -231.333 -119 -412 -119h-671z
M412 208.998h452c164 0 246 77 246 231c0 150 -82 225.333 -246 226h-452v-457zM412 849.998h417c62.667 0 114.167 17.667 154.5 53s60.5 85.333 60.5 150c0 133.333 -71 200 -213 200h-2h-417v-403z" />
    <glyph glyph-name="C" unicode="C" horiz-adv-x="1478" 
d="M78 731c0 217.333 62.002 397.668 186.002 541.001c130 150 301.333 225 514 225c168 0 308.667 -43.667 422 -131c117.333 -92 183.666 -215 198.999 -369h-256c-49.333 194 -171 291 -365 291c-146 0 -259.333 -58 -340 -174c-69.333 -101.333 -104 -229 -104 -383
s34.667 -281.667 104 -383c80.667 -116 194 -174 340 -174c109.333 0 197.333 37.667 264 113c61.333 68 97.666 158 108.999 270h250c-10.667 -176 -73.167 -318.667 -187.5 -428s-259.5 -164 -435.5 -164c-212.667 0 -384 76 -514 228
c-124 143.333 -186 322.666 -186 537.999z" />
    <glyph glyph-name="D" unicode="D" horiz-adv-x="1478" 
d="M156 0l-0.000976562 1462h606c214.667 0 378.334 -71.667 491.001 -215c102.667 -128.667 154 -300.667 154 -516c0 -216 -51.333 -388 -154 -516c-113.333 -143.333 -277 -215 -491 -215h-606zM411.999 209h251.999c186 0 317.667 50.333 395 151
c61.333 82 92 205.667 92 371s-30.667 289 -92 371c-77.333 100.667 -207.666 151 -390.999 151h-4h-252v-1044z" />
    <glyph glyph-name="E" unicode="E" horiz-adv-x="1290" 
d="M156 0v1462h1052v-221h-796v-383h737v-209h-737v-428h811v-221h-1067z" />
    <glyph glyph-name="F" unicode="F" horiz-adv-x="1214" 
d="M156 0v1462h1009v-221h-753v-383h661v-209h-661v-649h-256z" />
    <glyph glyph-name="G" unicode="G" horiz-adv-x="1554" 
d="M88 731c0 216 61.999 396.336 185.999 541.003c130 150 301.333 225 514 225c166.667 0 306 -42.333 418 -127c120 -88.667 189.667 -213 209 -373h-250c-12 92.667 -55 165 -129 217c-68 49.333 -150.667 74 -248 74c-146 0 -259 -58 -339 -174
c-69.333 -101.333 -104.333 -229 -105 -383c0 -154 35 -281.667 105 -383c79.333 -114.667 192.333 -172.667 339 -174h7c126.667 0 224.334 35.333 293.001 106c70.667 71.333 107.334 169.666 110.001 294.999h-389v195h623v-770h-164l-39 172
c-66.667 -76.667 -133.834 -130.334 -201.501 -161.001s-147.5 -46 -239.5 -46c-212.667 0 -384 76 -514 228c-124 143.333 -186 322.666 -186 537.999z" />
    <glyph glyph-name="H" unicode="H" horiz-adv-x="1478" 
d="M150 0v1462h256v-581h665v581h256v-1462h-256v659h-665v-659h-256z" />
    <glyph glyph-name="I" unicode="I" horiz-adv-x="569" 
d="M156 0v1462h256v-1462h-256z" />
    <glyph glyph-name="J" unicode="J" horiz-adv-x="1099" 
d="M27 434l-0.000976562 77.999h256v-76c0 -87.333 14.333 -151.333 43 -192c31.333 -46.667 83.666 -70 156.999 -70c79.333 0 134 24.667 164 74c27.333 40.667 41 110.334 41 209.001v1005h256v-991c0 -154 -28 -270 -84 -348
c-75.333 -105.333 -207.666 -158 -396.999 -158c-147.333 0 -258.666 45 -333.999 135c-68 80.667 -102 192 -102 334z" />
    <glyph glyph-name="K" unicode="K" horiz-adv-x="1402" 
d="M156 0v1462h256v-665l651 665h315l-583 -583l624 -879h-319l-479 698l-209 -206v-492h-256z" />
    <glyph glyph-name="L" unicode="L" horiz-adv-x="1175" 
d="M156 0v1462h256v-1241h743v-221h-999z" />
    <glyph glyph-name="M" unicode="M" horiz-adv-x="1820" 
d="M152 0v1462h360l403 -1145h5l393 1145h356v-1462h-244v1128h-4l-405 -1128h-211l-406 1128h-4v-1128h-243z" />
    <glyph glyph-name="N" unicode="N" horiz-adv-x="1478" 
d="M145 0v1462h271l667 -1077h4v1077h244v-1462h-270l-666 1075h-6v-1075h-244z" />
    <glyph glyph-name="O" unicode="O" horiz-adv-x="1556" 
d="M78 731c0 216 62 396.334 186 541.001c130 150 301.333 225 514 225s384 -75 514 -225c124 -144.667 186.333 -325 187 -541c0 -216 -62.333 -395.333 -187 -538c-130 -151.333 -301.333 -227.333 -514 -228c-212.667 0 -384 76 -514 228
c-124 143.333 -186 322.666 -186 537.999zM334 731.001c0 -154 34.667 -281.667 104 -383c80.667 -116 194 -174 340 -174s259.333 58 340 174c69.333 101.333 104.333 229 105 383c0 154 -35 281.667 -105 383c-80.667 116 -194 174 -340 174s-259.333 -58 -340 -174
c-69.333 -101.333 -104 -229 -104 -383z" />
    <glyph glyph-name="P" unicode="P" horiz-adv-x="1366" 
d="M156 0v1462h645c186 0 321 -52.333 405 -157c61.333 -76.667 92 -175 92 -295c0 -118.667 -30.667 -215.667 -92 -291c-84.667 -105.333 -219.667 -158 -405 -158h-389v-561h-256zM412 770h374c68 0 125.333 17 172 51c56 42 84 105.667 84 191
c0 160.667 -83 241 -249 241h-2h-379v-483z" />
    <glyph glyph-name="Q" unicode="Q" horiz-adv-x="1556" 
d="M78 731c0 216 62 396.334 186 541.001c130 150 301.333 225 514 225s384 -75 514 -225c124 -144.667 186.333 -325 187 -541c0 -241.333 -69 -428.333 -207 -561l188 -164l-125 -139l-213 186c-104 -58.667 -218.667 -88 -344 -88c-212.667 0 -384 76 -514 228
c-124 143.333 -186 322.666 -186 537.999zM334 731.001c0 -154 34.667 -281.667 104 -383c80.667 -116 194 -174 340 -174c61.333 0 116 11.667 164 35l-147 129l123 141l178 -155c84.667 101.333 127 237 127 407c0 154 -35 281.667 -105 383
c-80.667 116 -194 174 -340 174s-259.333 -58 -340 -174c-69.333 -101.333 -104 -229 -104 -383z" />
    <glyph glyph-name="R" unicode="R" horiz-adv-x="1441" 
d="M156 0l-0.000976562 1462h698c158.667 0 278.834 -34.5 360.501 -103.5s122.5 -166.167 122.5 -291.5c0 -190 -80.333 -313 -241 -369v-4c144.667 -20.667 217 -123.667 217 -309c0 -199.333 26.667 -327.666 80 -384.999h-275c-26 42 -39 113.667 -39 215
c0 140.667 -19 239 -57 295c-42 61.333 -120 92 -234 92h-376v-602h-256zM411.999 796.999h419c166.667 0 250 77.667 250 233c0 148.667 -84.667 223 -254 223h-415v-456z" />
    <glyph glyph-name="S" unicode="S" horiz-adv-x="1327" 
d="M68 487l256.002 0.00488281c0 -106.667 36 -187 108 -241c64 -48 151.333 -72 262 -72c105.333 0 185.333 23.333 240 70c46.667 39.333 70 89.666 70 150.999c0 90 -40.333 150 -121 180c-10.667 4 -156.334 44.333 -437.001 121c-215.333 58.667 -323 181.667 -323 369
c0 139.333 56 248.666 168 327.999c100 69.333 222 104 366 104c160 0 292 -39.667 396 -119c110.667 -86 166 -202 166 -348h-256c-10.667 172 -116 258 -316 258c-70.667 0 -130 -13 -178 -39c-60 -34 -90 -84.333 -90 -151c0 -94 58 -156.5 174 -187.5l422 -113.5
c91.333 -27.333 163 -78 215 -152c46.667 -66.667 70 -140.334 70 -221.001c0 -152.667 -61 -270 -183 -352c-105.333 -70.667 -238.333 -106.334 -399 -107.001c-177.333 0 -320 41.667 -428 125c-118.667 91.333 -179.334 223.666 -182.001 396.999z" />
    <glyph glyph-name="T" unicode="T" horiz-adv-x="1214" 
d="M16 1241v221h1184v-221h-465v-1241h-256v1241h-463z" />
    <glyph glyph-name="U" unicode="U" horiz-adv-x="1478" 
d="M139 526v936.002h256v-852c0 -132.667 15.667 -227.334 47 -284.001c50.667 -92.667 149.667 -139.334 297 -140.001c147.333 0 246.333 46.667 297 140c31.333 57.333 47 152 47 284v852h256v-936c0 -182.667 -54.333 -323.334 -163 -422.001
c-105.333 -92.667 -251 -139 -437 -139s-330.667 46.333 -434 139c-110.667 98.667 -166 239.334 -166 422.001z" />
    <glyph glyph-name="V" unicode="V" horiz-adv-x="1251" 
d="M-10 1462h266l367 -1157h4l374 1157h261l-500 -1462h-285z" />
    <glyph glyph-name="W" unicode="W" horiz-adv-x="1933" 
d="M12 1462h260l265 -1118h4l295 1118h262l286 -1118h5l272 1118h260l-403 -1462h-261l-292 1118h-4l-299 -1118h-265z" />
    <glyph glyph-name="X" unicode="X" horiz-adv-x="1327" 
d="M-6 0l518 758l-483 704h305l332 -516l346 516h286l-483 -704l518 -758h-311l-365 559l-370 -559h-293z" />
    <glyph glyph-name="Y" unicode="Y" horiz-adv-x="1327" 
d="M-12 1462h297l387 -655l381 655h286l-546 -889v-573h-256v573z" />
    <glyph glyph-name="Z" unicode="Z" horiz-adv-x="1290" 
d="M47 0v209l852 1032h-786v221h1112v-194l-852 -1047h872v-221h-1198z" />
    <glyph glyph-name="bracketleft" unicode="[" horiz-adv-x="606" 
d="M147 -391v1888h457v-184h-235v-1520h235v-184h-457z" />
    <glyph glyph-name="backslash" unicode="\" horiz-adv-x="720" 
d="M-45 1497h223l588 -1532h-223z" />
    <glyph glyph-name="bracketright" unicode="]" horiz-adv-x="606" 
d="M2 -207h236v1520h-236v184h457v-1888h-457v184z" />
    <glyph glyph-name="asciicircum" unicode="^" horiz-adv-x="1228" 
d="M172 686l369 748h147l369 -748h-209l-234 506l-233 -506h-209z" />
    <glyph glyph-name="underscore" unicode="_" horiz-adv-x="1024" 
d="M0 -154h1024v-102h-1024v102z" />
    <glyph glyph-name="grave" unicode="`" horiz-adv-x="493" 
d="M-59 1497h274l186 -293h-170z" />
    <glyph glyph-name="a" unicode="a" 
d="M197 535c53.333 31.333 145.332 56.334 275.999 75.001l221 33c64 19.333 96.333 58.333 97 117c0 95.333 -73.333 143 -220 143c-146 0 -223.667 -56 -233 -168h-234c13.333 234.667 174 352 482 352c116 0 212 -23 288 -69c90.667 -54.667 136 -134 136 -238v-544
c0 -53.333 18.333 -80 55 -80c22 0 41 1.33301 57 4v-162c-50.667 -18 -99.667 -27 -147 -27c-104 0 -164 43 -180 129c-87.333 -86 -209.666 -129 -366.999 -129c-102.667 0 -186.667 26 -252 78c-73.333 55.333 -110 131.666 -110 228.999c0 119.333 43.667 205 131 257z
M298.999 291.001c0 -46.667 25.999 -82.335 77.999 -107.002c38 -18.667 82 -28 132 -28h5c62.667 0 119.334 15 170.001 45c61.333 36.667 92 88.334 92 155.001v174c-30 -19.333 -73.667 -33.666 -131 -42.999l-156 -20c-126.667 -22 -190 -80.667 -190 -176z" />
    <glyph glyph-name="b" unicode="b" horiz-adv-x="1251" 
d="M129 0l-0.000976562 1462h233v-540h5c31.333 50.667 76.333 90.834 135 120.501s118.667 44.5 180 44.5c160 0 284.333 -55 373 -165c82 -101.333 123 -234 123 -398c0 -154 -37 -281.667 -111 -383c-83.333 -113.333 -198.666 -170 -345.999 -170
c-186 0 -308.333 58 -367 174h-4v-145h-221zM353.999 527.999c0 -109.333 26.667 -198.668 80 -268.001s125.666 -104 216.999 -104c98 0 174 38.667 228 116c43.333 66.667 65 152 65 256c0 102.667 -24.667 189.334 -74 260.001c-54.667 76.667 -127.667 115 -219 115
c-95.333 0 -168.666 -33.5 -219.999 -100.5s-77 -158.5 -77 -274.5z" />
    <glyph glyph-name="c" unicode="c" 
d="M72 518c0 168 43.6689 303.332 131.002 405.999c92 108.667 221.333 163 388 163h3c130 0 237 -31.333 321 -94c93.333 -68 145.333 -164 156 -288h-233c-19.333 132 -99.333 198 -240 198h-2c-78 0 -141.333 -24 -190 -72
c-66.667 -65.333 -100.334 -169.666 -101.001 -312.999c0 -100 21.333 -182.667 64 -248c50 -76 121.667 -114 215 -114h2c68 0 124.167 21.5 168.5 64.5s72.166 101.833 83.499 176.5h233c-45.333 -284 -207 -426 -485 -426c-161.333 0 -288.333 52.667 -381 158
c-88.667 98 -133 227.667 -133 389z" />
    <glyph glyph-name="d" unicode="d" horiz-adv-x="1251" 
d="M72 537c0 180 47.666 319.667 142.999 419c83.333 87.333 188.333 131 315 131c166.667 0 284.334 -55 353.001 -165h4v540h233v-1462h-221v143h-4c-58.667 -114.667 -168 -172 -328 -172c-161.333 0 -285.333 54.667 -372 164c-82 101.333 -123 235.333 -123 402z
M304.999 518c0 -100 23.332 -183.333 69.999 -250c52.667 -74.667 126 -112 220 -112h3c96.667 0 172.334 39.333 227.001 118c46.667 68 70 153.333 70 256c0 116 -26.333 207.167 -79 273.5s-124 99.5 -214 99.5c-101.333 0 -178.333 -40.333 -231 -121
c-44 -68 -66 -156 -66 -264z" />
    <glyph glyph-name="e" unicode="e" 
d="M72 528c0 155.333 45.666 286.668 136.999 394.001c96 110 220 165 372 165h3c148.667 0 270.667 -54.333 366 -163c91.333 -102.667 137 -228.334 137 -377.001c0 -26 -1.33301 -52 -4 -78h-778c0 -88.667 23.333 -161.667 70 -219
c50.667 -62.667 122.334 -94 215.001 -94c131.333 0 217.333 58.667 258 176h221c-24.667 -113.333 -81 -201.833 -169 -265.5s-191.333 -95.5 -310 -95.5c-162.667 0 -289.667 51.333 -381 154s-137 237 -137 403zM304.999 623.002h545c-4 78 -30.333 144.167 -79 198.5
s-111 81.5 -187 81.5c-79.333 0 -145 -26.5 -197 -79.5s-79.333 -119.833 -82 -200.5z" />
    <glyph glyph-name="f" unicode="f" horiz-adv-x="645" 
d="M18 885l0.000976562 173.999h175v88c0 122.667 30 209.334 90 260.001c45.333 36.667 112.666 55 201.999 55c75.333 0 130 -4.66699 164 -14v-182c-30 8 -66 12 -108 12c-76.667 0 -115 -37 -115 -111v-108h199v-174h-199v-885h-233v885h-175z" />
    <glyph glyph-name="g" unicode="g" horiz-adv-x="1214" 
d="M199 930c88 104.667 204.334 157 349.001 157h3c151.333 0 255.666 -58 312.999 -174h4v146h234v-1004c0 -316.667 -173.333 -475 -520 -475c-122.667 0 -226 24 -310 72c-100 57.333 -154.333 143.333 -163 258h233c22 -104 106.667 -156 254 -156
c181.333 0 272 90.333 272 271v161h-4c-69.333 -124 -175 -186 -317 -186c-160 -0 -281 55.333 -363 166c-74.667 96 -112 225 -112 387c0 151.333 42.333 277 127 377zM305.001 535c0 -95.333 22 -175.333 66 -240c50.667 -74 121.667 -111 213 -111
c95.333 0 168.333 39 219 117c43.333 66 65 148.333 65 247c0 103.333 -21.667 186.333 -65 249c-50.667 70.667 -123.667 106 -219 106s-167.666 -39.667 -216.999 -119c-40.667 -65.333 -61.334 -148.333 -62.001 -249z" />
    <glyph glyph-name="h" unicode="h" horiz-adv-x="1175" 
d="M123 0v1462h233v-542h4c30 49.333 73.333 89.5 130 120.5s119.334 46.5 188.001 46.5c117.333 0 209.166 -30.667 275.499 -92s99.5 -150.666 99.5 -267.999v-727h-234v666c0 158 -68.333 237 -205 237h-2c-76.667 0 -138.5 -26.667 -185.5 -80
s-70.5 -119.333 -70.5 -198v-625h-233z" />
    <glyph glyph-name="i" unicode="i" horiz-adv-x="493" 
d="M129 0v1059h233v-1059h-233zM129 1241v221h233v-221h-233z" />
    <glyph glyph-name="j" unicode="j" horiz-adv-x="493" 
d="M-45 -227c40.667 -5.33301 67.334 -8.33301 80.001 -9c39.333 0 66 13 80 39c9.33301 20.667 14 59.667 14 117v1139h233v-1149c0 -220 -101 -330 -303 -330c-28.667 0 -63.334 2.66699 -104.001 8v185zM129 1241v221h233v-221h-233z" />
    <glyph glyph-name="k" unicode="k" horiz-adv-x="1099" 
d="M129 0v1462h233v-831l422 428h287l-405 -389l444 -670h-285l-323 514l-140 -135v-379h-233z" />
    <glyph glyph-name="l" unicode="l" horiz-adv-x="493" 
d="M129 0v1462h233v-1462h-233z" />
    <glyph glyph-name="m" unicode="m" horiz-adv-x="1781" 
d="M123 0l-0.000976562 1059h221v-148h6c78 117.333 186.667 176 326 176c151.333 0 250.333 -58.667 297 -176c84.667 117.333 195.334 176 332.001 176c236 0 354 -118.667 354 -356v-731h-234v618c0 100 -9.33301 168.333 -28 205c-26 53.333 -80.667 80 -164 80
c-150 0 -225 -94 -225 -282v-621h-234v680c0 76.667 -14 133 -42 169s-76 54 -144 54c-64 0 -118.667 -24.5 -164 -73.5s-68 -115.833 -68 -200.5v-629h-233z" />
    <glyph glyph-name="n" unicode="n" horiz-adv-x="1175" 
d="M123 0l0.000976562 1059h221v-156l4 -4c75.333 125.333 185.333 188 330 188c117.333 0 209.166 -30.667 275.499 -92s99.5 -150.666 99.5 -267.999v-727h-234v666c0 158 -68.333 237 -205 237h-2c-76.667 0 -138.5 -26.667 -185.5 -80s-70.5 -119.333 -70.5 -198v-625
h-233z" />
    <glyph glyph-name="o" unicode="o" horiz-adv-x="1214" 
d="M74 530c0 165.333 47.333 299.5 142 402.5s225.334 154.5 392.001 154.5s298.667 -52.333 396 -157c92.667 -101.333 139 -234.666 139 -399.999c0 -166.667 -46.333 -300.334 -139 -401.001c-97.333 -105.333 -229.333 -158 -396 -158s-298.334 52.667 -395.001 158
c-92.667 101.333 -139 235 -139 401zM307 530c0 -102.667 24.001 -188 72.001 -256c54.667 -78.667 131 -118 229 -118s174.667 39.333 230 118c47.333 67.333 71 151.333 71 252c0 104 -23.667 190 -71 258c-54.667 79.333 -131.334 119 -230.001 119
c-98 0 -174.333 -39.667 -229 -119c-48 -68 -72 -152.667 -72 -254z" />
    <glyph glyph-name="p" unicode="p" horiz-adv-x="1251" 
d="M129 -391l-0.000976562 1450h221v-144h4c62.667 114.667 172 172 328 172c160 0 284.333 -55 373 -165c82 -101.333 123 -234 123 -398c0 -154 -37 -281.667 -111 -383c-83.333 -113.333 -198.666 -170 -345.999 -170c-166.667 0 -284.667 55.333 -354 166h-5v-528h-233z
M353.999 528c0 -109.333 26.667 -198.668 80 -268.001s125.666 -104 216.999 -104c98 0 174 38.667 228 116c43.333 66.667 65 152 65 256c0 102.667 -24.667 189.334 -74 260.001c-54.667 76.667 -127.667 115 -219 115c-95.333 0 -168.666 -33.5 -219.999 -100.5
s-77 -158.5 -77 -274.5z" />
    <glyph glyph-name="q" unicode="q" horiz-adv-x="1251" 
d="M195 922c88 110 210.999 165 368.999 165h3c155.333 0 264.666 -57.333 327.999 -172h4v144h221v-1450h-233v528h-4c-69.333 -110.667 -187.666 -166 -354.999 -166c-147.333 0 -262.666 56.667 -345.999 170c-73.333 100.667 -110 227 -110 379
c0 166.667 41 300.667 123 402zM304.999 528c0 -104 22.667 -189.332 68 -255.999c51.333 -77.333 125.666 -116 222.999 -116h2c98 0 173 34.667 225 104c48 64 72 153.333 72 268c0 116 -25.667 207.5 -77 274.5s-124.666 100.5 -219.999 100.5
c-91.333 0 -164.333 -38.333 -219 -115c-49.333 -70.667 -74 -157.334 -74 -260.001z" />
    <glyph glyph-name="r" unicode="r" horiz-adv-x="720" 
d="M123 0v1059h219v-205h4c13.333 58.667 50.833 112.167 112.5 160.5s127.167 72.5 196.5 72.5c18 0 47.333 -2 88 -6v-225c-54.667 6.66699 -88 10 -100 10c-83.333 0 -151 -31.333 -203 -94c-56 -65.333 -84 -154.666 -84 -267.999v-504h-233z" />
    <glyph glyph-name="s" unicode="s" horiz-adv-x="1062" 
d="M66 340l232.999 0.000976562c10.667 -122.667 90.667 -184 240 -184c156.667 0 235 43.667 235 131v8c-2.66699 65.333 -64 112.333 -184 141c-200.667 49.333 -309.334 78 -326.001 86c-117.333 52 -176 139.333 -176 262c0 105.333 50 184.666 150 237.999
c78 43.333 173.667 65 287 65h5c118.667 0 216.334 -24.333 293.001 -73c86 -57.333 136 -141.333 150 -252h-244c-18 94 -89.667 141 -215 141c-128 0 -192 -35.667 -192 -107c0 -50 36 -88 108 -114c13.333 -5.33301 92 -24.333 236 -57
c106.667 -24.667 185 -54.667 235 -90c70.667 -52 106.334 -125.333 107.001 -220c0 -116 -51.333 -204.667 -154 -266c-86 -52 -192.333 -78 -319 -78c-139.333 0 -250 30 -332 90c-90 66 -135.667 159 -137 279z" />
    <glyph glyph-name="t" unicode="t" horiz-adv-x="681" 
d="M16 885l0.00195312 174h177v317h233v-317h211v-174h-211v-566c0 -54.667 5.33301 -90.667 16 -108c15.333 -24.667 47.666 -37 96.999 -37c44 0 76.667 2.66699 98 8v-180c-102.667 -8 -153.334 -12 -152.001 -12c-114.667 0 -193.667 23 -237 69
c-36.667 38 -55 105 -55 201v625h-177z" />
    <glyph glyph-name="u" unicode="u" horiz-adv-x="1175" 
d="M123 387l0.00195312 672h233v-649c0 -169.333 67.667 -254 203 -254c173.333 0 260 96 260 288v615h234v-1059h-230v147h-4c-28.667 -52 -71.334 -94.333 -128.001 -127s-114.334 -49 -173.001 -49c-263.333 0 -395 138.667 -395 416z" />
    <glyph glyph-name="v" unicode="v" horiz-adv-x="1062" 
d="M18 1059h254l269 -813h4l258 813h241l-378 -1059h-263z" />
    <glyph glyph-name="w" unicode="w" horiz-adv-x="1593" 
d="M27 1059h247l207 -791h4l199 791h236l190 -791h4l215 791h238l-332 -1059h-240l-196 786h-4l-195 -786h-246z" />
    <glyph glyph-name="x" unicode="x" horiz-adv-x="1099" 
d="M8 0l400 557l-367 502h283l221 -326l231 326h271l-361 -490l406 -569h-281l-268 391l-260 -391h-275z" />
    <glyph glyph-name="y" unicode="y" horiz-adv-x="1062" 
d="M6 1059l256 0.000976562l277 -791h4l268 791h244l-412 -1116c-46.667 -125.333 -87.667 -210 -123 -254c-58.667 -72.667 -142.667 -109 -252 -109c-54.667 0 -108.667 4 -162 12v197c57.333 -9.33301 94.333 -14 111 -14c49.333 0 87 13.667 113 41
c18 19.333 35 54.666 51 105.999l27 82z" />
    <glyph glyph-name="z" unicode="z" horiz-adv-x="1024" 
d="M45 0v164l586 710h-545v185h860v-164l-606 -711h637v-184h-932z" />
    <glyph glyph-name="braceleft" unicode="{" horiz-adv-x="606" 
d="M-8 461l0.00292969 184.001c42 0 81.667 10.333 119 31c49.333 27.333 73.666 67 72.999 119v422c0 86 33 157 99 213c53.333 45.333 107.666 67.666 162.999 66.999h187v-184h-113c-76.667 0 -114.667 -48 -114 -144v-399c0 -72.667 -27.333 -128 -82 -166
c-36.667 -26 -80.334 -42.333 -131.001 -49v-4c142 -13.333 213 -89 213 -227v-387c0 -95.333 38 -143.333 114 -144h113v-184h-187c-56 0 -110.333 22.333 -163 67c-65.333 56 -98.333 127 -99 213v406c0 58.667 -24.333 103 -73 133c-37.333 22 -77 33 -119 33z" />
    <glyph glyph-name="bar" unicode="|" horiz-adv-x="454" 
d="M123 -35v1532h209v-1532h-209z" />
    <glyph glyph-name="braceright" unicode="}" horiz-adv-x="606" 
d="M-27 -207l112.999 -0.000976562c76.667 0 115 48 115 144v399c0 72.667 27.333 128 82 166c36.667 26 80.334 42.333 131.001 49v4c-142 13.333 -213 89 -213 227v387c0 95.333 -38.333 143.333 -115 144h-113v184h187c56 0 110.667 -22.333 164 -67
c65.333 -56 98 -127 98 -213v-406c0 -58.667 25.333 -103 76 -133c35.333 -22 74 -33 116 -33v-184c-42 0 -80.667 -10.333 -116 -31c-50.667 -27.333 -76 -67 -76 -119v-422c0 -86 -32.667 -157 -98 -213c-53.333 -45.333 -108 -67.666 -164 -66.999h-187v184z" />
    <glyph glyph-name="asciitilde" unicode="~" horiz-adv-x="1228" 
d="M141 516c61.333 117.333 146.666 175.999 255.999 175.999c52 0 128 -21.667 228 -65c112 -49.333 181.667 -74 209 -74c35.333 0 69.333 15 102 45c18 16 44 47.333 78 94l73 -172c-40.667 -57.333 -74.667 -97.666 -102 -120.999c-46.667 -36.667 -98 -55 -154 -55
c-57.333 0 -126.666 22.667 -207.999 68c-86 48 -164.667 71.667 -236 71c-66.667 0 -124 -46.333 -172 -139z" />
    <glyph glyph-name="uni00A0" unicode="&#xa0;" horiz-adv-x="569" 
 />
    <glyph glyph-name="exclamdown" unicode="&#xa1;" horiz-adv-x="569" 
d="M147 831v256h275v-256h-275zM158 43l67 637h121l68 -637v-418h-256v418z" />
    <glyph glyph-name="cent" unicode="&#xa2;" 
d="M76 518c0 170.667 44.001 308.166 132.001 412.499s201.667 156.5 341 156.5v185h88v-185c116 0 215.333 -34.667 298 -104s128.667 -162 138 -278h-233c-6.66699 58.667 -28.834 106.334 -66.501 143.001s-83.167 55 -136.5 55v-747c122.667 20.667 193 101 211 241h233
c-52 -284 -200 -426 -444 -426v-184h-88v184c-143.333 0 -259.333 54 -348 162c-83.333 102.667 -125 231 -125 385zM309.001 517.999c0 -91.333 18.666 -169 55.999 -233c42 -74 103.333 -117 184 -129v747c-83.333 -8 -145.666 -53 -186.999 -135
c-35.333 -68 -53 -151.333 -53 -250z" />
    <glyph glyph-name="sterling" unicode="&#xa3;" 
d="M63 653l-0.00292969 133.001h130c-64 79.333 -96.333 175.666 -97 288.999c0 122.667 50.667 225 152 307c92.667 76.667 201.667 115 327 115c160 0 285.333 -43 376 -129s137 -211.667 139 -377h-234c-9.33301 207.333 -101.333 311.333 -276 312
c-65.333 0 -118.666 -20.667 -159.999 -62c-45.333 -45.333 -68 -104.666 -68 -177.999c0 -68 31.333 -160.333 94 -277h302v-133h-252c22 -40.667 32.667 -86.334 32 -137.001c0 -121.333 -68.667 -233.333 -206 -336l4 -4c92.667 36.667 155.334 55 188.001 55
c40.667 0 94.834 -11.833 162.501 -35.5s119.167 -35.5 154.5 -35.5c72.667 0 139 26 199 78l105 -158c-88.667 -76.667 -198 -115 -328 -115c-26 0 -59.333 4 -100 12c-64 12 -98.333 18.333 -103 19c-90 27.333 -161.667 41 -215 41c-83.333 0 -152.333 -23.333 -207 -70
l-108 166c57.333 38 106.333 85.667 147 143c49.333 66.667 74 129.667 74 189c0 65.333 -14.333 128 -43 188h-189z" />
    <glyph glyph-name="currency" unicode="&#xa4;" 
d="M41 299l117 125c-68 76.667 -102.333 173.667 -103 291c0 130 34.333 228.333 103 295l-117 125l117 116l116 -114c74 62.667 173.667 94 299 94c118.667 0 212.334 -30.667 281.001 -92l119 116l125 -125l-115 -118c64 -68 96 -165.667 96 -293
c0 -121.333 -32.667 -221 -98 -299l113 -121l-113 -113l-117 119c-70.667 -68 -168.334 -102 -293.001 -102c-126.667 0 -227 33.333 -301 100l-114 -119zM276 715c0 -84.667 28.335 -156.333 85.002 -215s126.667 -88 210 -88c82 0 150.333 30 205 90s82 132.333 82 217
c0 82 -27.333 153 -82 213s-122.334 90 -203.001 90c-84.667 0 -155.334 -29.667 -212.001 -89s-85 -132 -85 -218z" />
    <glyph glyph-name="yen" unicode="&#xa5;" 
d="M-10 1462h260l319 -655l326 655h254l-385 -719h203v-133h-281v-139h281v-133h-281v-338h-233v338h-281v133h281v139h-281v133h201z" />
    <glyph glyph-name="brokenbar" unicode="&#xa6;" horiz-adv-x="454" 
d="M123 -35v598h209v-598h-209zM123 899v598h209v-598h-209z" />
    <glyph glyph-name="section" unicode="&#xa7;" 
d="M45 639c0 140.667 73.667 242.335 221 305.002c-58.667 60 -88 129 -88 207c0 104 43 189.333 129 256c78 60 169.667 90 275 90c118.667 0 216.5 -34.833 293.5 -104.5s116.167 -163.834 117.5 -282.501h-221c-2.66699 58.667 -21 107.167 -55 145.5
s-79.667 57.5 -137 57.5c-44 0 -83 -14.333 -117 -43s-51 -65.667 -51 -111c0 -56 35.333 -108.667 106 -158c27.333 -19.333 105.333 -61.666 234 -126.999c108 -54.667 186.333 -105 235 -151c72.667 -69.333 109 -148 109 -236c0 -64 -20.833 -124 -62.5 -180
s-93.167 -94 -154.5 -114c75.333 -62.667 112.666 -150.334 111.999 -263.001c0 -110.667 -41 -198 -123 -262c-76.667 -58.667 -170.667 -88 -282 -88c-128.667 0 -232.667 36.333 -312 109c-83.333 75.333 -127 179 -131 311h222
c10.667 -157.333 82.334 -236 215.001 -236c118.667 0 178 55.333 178 166c0 65.333 -37 125.666 -111 180.999c-32.667 23.333 -113 68.333 -241 135c-113.333 58.667 -196 111 -248 157c-75.333 69.333 -113 148 -113 236zM266 666.001
c0 -64 37.667 -117.334 113 -160.001l373 -209c82 35.333 122.667 91.333 122 168c0 58.667 -47.667 115.334 -143 170.001l-340 194c-36.667 -10.667 -66.667 -31 -90 -61s-35 -64 -35 -102z" />
    <glyph glyph-name="dieresis" unicode="&#xa8;" horiz-adv-x="493" 
d="M-45 1227v221h233v-221h-233zM307 1227v221h234v-221h-234z" />
    <glyph glyph-name="copyright" unicode="&#xa9;" horiz-adv-x="1638" 
d="M68 731c0 225.333 75.001 410.333 225.001 555c143.333 140.667 319.333 211 528 211c206 0 381.667 -70.333 527 -211c148.667 -144.667 223 -329.667 223 -555s-73.5 -409.333 -220.5 -552s-323.5 -214 -529.5 -214c-218.667 0 -398.834 72.667 -540.501 218
s-212.5 328 -212.5 548zM231.001 731c0 -178.667 52.667 -327.332 158 -445.999c110.667 -124 254.667 -186.333 432 -187c166.667 0 306 59.5 418 178.5s168 270.5 168 454.5s-56.333 335.5 -169 454.5s-251.667 178.5 -417 178.5c-168 0 -308.333 -59.333 -421 -178
s-169 -270.334 -169 -455.001zM412.001 731.002c0 126.667 38.832 231.668 116.499 315.001s182.167 125 313.5 125c95.333 0 176.5 -26.833 243.5 -80.5s107.167 -129.834 120.5 -228.501h-139c-10.667 53.333 -36.5 96 -77.5 128s-90.167 48 -147.5 48
c-83.333 0 -148.666 -29 -195.999 -87s-71 -131.333 -71 -220c0 -91.333 25 -169.166 75 -233.499s115.333 -96.5 196 -96.5c60 0 110.167 17.167 150.5 51.5s63.833 78.166 70.5 131.499h141c-18 -95.333 -60 -171.833 -126 -229.5s-144.667 -86.5 -236 -86.5
c-130 0 -234.833 43.667 -314.5 131s-119.5 198 -119.5 332z" />
    <glyph glyph-name="ordfeminine" unicode="&#xaa;" horiz-adv-x="778" 
d="M33 954c0 69.333 29.998 120.667 89.998 154c34 19.333 96 36.333 186 51c78 13.333 123 22.333 135 27c36.667 10.667 55.334 27.667 56.001 51c0 61.333 -41 92 -123 92c-90 0 -138 -28.667 -144 -86h-174c13.333 146 122.666 219 327.999 219
c79.333 0 145.666 -15 198.999 -45c61.333 -34 92 -82.333 92 -145v-309c0 -31.333 11.667 -46.333 35 -45c6.66699 0 17.334 0.666992 32.001 2v-140c-30 -10.667 -62 -16 -96 -16c-74 0 -116.333 33.333 -127 100c-19.333 -28.667 -53.166 -52.5 -101.499 -71.5
s-94.166 -28.5 -137.499 -28.5c-68 0 -126.667 16.667 -176 50s-74 80 -74 140zM210.998 965.001c0 -45.333 38.333 -68 115 -68c116 0 174 36.333 174 109v90c-22 -10.667 -79.333 -23.667 -172 -39c-78 -12 -117 -42.667 -117 -92z" />
    <glyph glyph-name="guillemotleft" unicode="&#xab;" horiz-adv-x="948" 
d="M102 442v230l318 252v-211l-195 -156l195 -156v-211zM508 442v230l317 252v-211l-194 -156l194 -156v-211z" />
    <glyph glyph-name="logicalnot" unicode="&#xac;" horiz-adv-x="1228" 
d="M98 621v208h1032v-608h-208v400h-824z" />
    <glyph glyph-name="uni00AD" unicode="&#xad;" horiz-adv-x="796" 
d="M100 446v222h596v-222h-596z" />
    <glyph glyph-name="registered" unicode="&#xae;" horiz-adv-x="1638" 
d="M68 731c0 225.333 75.001 410.333 225.001 555c143.333 140.667 319.333 211 528 211c206 0 381.667 -70.333 527 -211c148.667 -144.667 223 -329.667 223 -555s-73.5 -409.333 -220.5 -552s-323.5 -214 -529.5 -214c-218.667 0 -398.834 72.667 -540.501 218
s-212.5 328 -212.5 548zM231.001 731c0 -178.667 52.667 -327.332 158 -445.999c110.667 -124 254.667 -186.333 432 -187c166.667 0 306 59.5 418 178.5s168 270.5 168 454.5s-56.333 335.5 -169 454.5s-251.667 178.5 -417 178.5c-168 0 -308.333 -59.333 -421 -178
s-169 -270.334 -169 -455.001zM530.001 293.002v848h322c206 0 309 -81.333 309 -244c0 -138 -73.667 -215 -221 -231l238 -373h-158l-219 362h-131v-362h-140zM670.001 774.002l155 0.000976562c64 0 110 7 138 21c39.333 19.333 59 56.666 59 111.999
c0 76.667 -61.333 115 -184 115h-168v-248z" />
    <glyph glyph-name="macron" unicode="&#xaf;" horiz-adv-x="493" 
d="M-47 1268v133h590v-133h-590z" />
    <glyph glyph-name="degree" unicode="&#xb0;" horiz-adv-x="819" 
d="M102 1155c0 84.667 30.167 157 90.5 217s132.833 90 217.5 90s157 -30 217 -90s90 -132.333 90 -217s-30 -157 -90 -217s-132.333 -90 -217 -90s-157.167 30 -217.5 90s-90.5 132.333 -90.5 217zM217 1155c0 -53.333 18.835 -98.666 56.502 -135.999
s83.167 -56 136.5 -56s98.666 18.667 135.999 56s56 82.666 56 135.999s-18.833 98.833 -56.5 136.5s-82.834 56.5 -135.501 56.5c-53.333 0 -98.833 -18.833 -136.5 -56.5s-56.5 -83.167 -56.5 -136.5z" />
    <glyph glyph-name="plusminus" unicode="&#xb1;" horiz-adv-x="1228" 
d="M98 0v209h1032v-209h-1032zM98 571v209h412v256h209v-256h411v-209h-411v-256h-209v256h-412z" />
    <glyph glyph-name="uni00B2" unicode="&#xb2;" horiz-adv-x="737" 
d="M43 559c1.33301 146 69.667 262.667 205 350c121.333 78 183.333 118.333 186 121c62.667 50.667 94.667 104.667 96 162c1.33301 84.667 -48.334 127 -149.001 127c-94 0 -144 -63.667 -150 -191h-178c0 104 30 185.667 90 245s142 89 246 89
c92.667 0 167.667 -20.333 225 -61c62.667 -48 94.334 -116.333 95.001 -205c0 -102.667 -69.667 -199 -209 -289l-155 -100c-51.333 -34 -82.333 -69 -93 -105h436v-143h-645z" />
    <glyph glyph-name="uni00B3" unicode="&#xb3;" horiz-adv-x="737" 
d="M33 858l164 0.000976562c-2.66699 -50.667 11.333 -92.334 42 -125.001s74 -49 130 -49c49.333 0 90.666 13.333 123.999 40s50 61.667 50 105c0 101.333 -81.333 149.333 -244 144v119c57.333 -2.66699 104.333 5.33301 141 24c44 22 66 55.667 66 101
c0 34 -15.667 60.333 -47 79c-26 15.333 -57.333 23 -94 23c-45.333 0 -82 -14.667 -110 -44s-41.333 -66.666 -40 -111.999h-164c4 94 34 167.333 90 220s131.333 79 226 79c84.667 0 154 -17.667 208 -53c62.667 -42 94.334 -103.333 95.001 -184
c0 -92.667 -43.667 -154.334 -131 -185.001v-4c52 -9.33301 93 -33.5 123 -72.5s45 -86.5 45 -142.5c0 -87.333 -32.167 -155.833 -96.5 -205.5s-144.833 -74.5 -241.5 -74.5c-220 0 -332 105.667 -336 317z" />
    <glyph glyph-name="acute" unicode="&#xb4;" horiz-adv-x="493" 
d="M92 1204l184 293h277l-291 -293h-170z" />
    <glyph glyph-name="mu" unicode="&#xb5;" horiz-adv-x="1175" 
d="M123 -391l0.00195312 1450h233v-649c0 -169.333 67.667 -254 203 -254c173.333 0 260 96 260 288v615h234v-1059h-230v147h-4c-27.333 -52 -68.333 -94.333 -123 -127s-106.334 -49 -155.001 -49c-80.667 0 -142.334 24.667 -185.001 74v-436h-233z" />
    <glyph glyph-name="paragraph" unicode="&#xb6;" horiz-adv-x="1228" 
d="M63 1077c0 256.667 159.332 385.001 477.999 385.001h530v-1790h-164v1657h-239v-1657h-164v1033c-131.333 0 -237.666 34.667 -318.999 104s-122 158.666 -122 267.999z" />
    <glyph glyph-name="periodcentered" unicode="&#xb7;" horiz-adv-x="569" 
d="M131 618c0 39.333 15.667 74.5 47 105.5s67 46.5 107 46.5c40.667 0 76.334 -15.333 107.001 -46s46 -66 46 -106c0 -40.667 -15.333 -76.667 -46 -108s-66.334 -47 -107.001 -47s-76.5 15.667 -107.5 47s-46.5 67.333 -46.5 108z" />
    <glyph glyph-name="cedilla" unicode="&#xb8;" horiz-adv-x="493" 
d="M18 -410l37 82c65.333 -22 109.666 -32.667 132.999 -32c83.333 0 125 28 125 84c0 24.667 -9.5 43.667 -28.5 57s-40.833 20 -65.5 20c-30 0 -56.667 -6.66699 -80 -20l-45 39l135 180h99l-92 -119v-4c10.667 4 33 6 67 6c45.333 0 84.333 -12.333 117 -37
c38 -28.667 57 -66.667 57 -114c0 -64 -26.667 -112.667 -80 -146c-44 -26 -100 -39 -168 -39c-91.333 0 -161.666 14.333 -210.999 43z" />
    <glyph glyph-name="uni00B9" unicode="&#xb9;" horiz-adv-x="737" 
d="M74 1182v118c165.333 0 259.333 48 282 144h144v-885h-178v623h-248z" />
    <glyph glyph-name="ordmasculine" unicode="&#xba;" horiz-adv-x="778" 
d="M31 1112c0 106.667 31.667 191.667 95 255s153 95 269 95s207 -32 273 -96c61.333 -62.667 92 -147.334 92 -254.001s-30.667 -190.667 -92 -252c-65.333 -64 -156.333 -96 -273 -96c-116 0 -205.667 31.333 -269 94s-95 147.334 -95 254.001zM209 1112
c0 -57.333 14.999 -105.667 44.999 -145c35.333 -46.667 82.333 -70 141 -70c60 0 107.333 23.333 142 70c28.667 38 43.667 86.333 45 145c1.33301 56 -13.667 105.333 -45 148c-35.333 46.667 -82.666 69.667 -141.999 69c-58.667 0 -105.667 -23 -141 -69
c-30 -40.667 -45 -90 -45 -148z" />
    <glyph glyph-name="guillemotright" unicode="&#xbb;" horiz-adv-x="948" 
d="M123 190v211l194 156l-194 156v211l317 -252v-230zM528 190v211l195 156l-195 156v211l318 -252v-230z" />
    <glyph glyph-name="onequarter" unicode="&#xbc;" horiz-adv-x="1708" 
d="M76 1182v118c165.333 0 259.333 48 282 144h144v-885h-178v623h-248zM289 -49l858 1532h160l-856 -1532h-162zM895 199v166l379 512h199v-525h96v-153h-96v-199h-179v199h-399zM1051 352h243v324h-4z" />
    <glyph glyph-name="onehalf" unicode="&#xbd;" horiz-adv-x="1708" 
d="M74 1182v118c165.333 0 259.333 48 282 144h144v-885h-178v623h-248zM281 -49l858 1532h159l-856 -1532h-161zM969 0c0 91.333 24.999 170.668 74.999 238.001c35.333 45.333 91.333 91.666 168 138.999c108 68 163.333 103.333 166 106c52 42 78 92 78 150
c0 42 -14 75.333 -42 100s-63.667 37 -107 37c-94 0 -144 -67 -150 -201h-178c0 106.667 29.333 190.667 88 252s141.334 92 248.001 92c92.667 0 167.667 -22.333 225 -67c62.667 -49.333 94 -119 94 -209c0 -104 -69.667 -200.333 -209 -289l-153 -96
c-52 -36.667 -83.333 -73 -94 -109h436v-143h-645z" />
    <glyph glyph-name="threequarters" unicode="&#xbe;" horiz-adv-x="1708" 
d="M33 858l164 0.00195312c-2.66699 -50.667 11.333 -92.334 42 -125.001s74 -49 130 -49c49.333 0 90.666 13.333 123.999 40s50 61.667 50 105c0 100 -81.333 147.333 -244 142v119c57.333 -2.66699 104.333 5.33301 141 24c44 23.333 66 57.666 66 102.999
c0 34 -15.667 60.333 -47 79c-26 15.333 -57.333 23 -94 23c-45.333 0 -82 -14.667 -110 -44s-41.333 -66.666 -40 -111.999h-164c4 94 34 167.333 90 220s131.333 79 226 79c84.667 0 154 -17.667 208 -53c62.667 -42 94.334 -103.333 95.001 -184
c0 -92.667 -43.667 -154.334 -131 -185.001v-4c52 -9.33301 93 -33.5 123 -72.5s45 -86.5 45 -142.5c0 -87.333 -32.167 -155.833 -96.5 -205.5s-144.833 -74.5 -241.5 -74.5c-220 0 -332 105.667 -336 317zM401 -48.998l859 1532h159l-856 -1532h-162zM971 199.002v166
l375 512h202v-525h97v-153h-97v-199h-178v199h-399zM1126 352.002h244v324h-4z" />
    <glyph glyph-name="questiondown" unicode="&#xbf;" 
d="M100 -6c0 84.667 19.335 155.666 58.002 212.999c20.667 32.667 62.667 75.667 126 129s105.333 97 126 131c34 53.333 51 124.333 51 213h221c0 -113.333 -13 -200.666 -39 -261.999c-22 -52 -62.333 -103.333 -121 -154c-64 -56 -102.667 -92 -116 -108
c-32.667 -42 -49.334 -93.333 -50.001 -154c0 -69.333 24.667 -125.333 74 -168c38 -32.667 80.333 -49 127 -49c82 0 143.833 26.667 185.5 80s62.5 125 62.5 215h233c1.33301 -146 -42.667 -264.167 -132 -354.5s-209 -135.5 -359 -135.5
c-128.667 0 -235.334 36.167 -320.001 108.5s-127 170.833 -127 295.5zM430.002 830.999v256h275v-256h-275z" />
    <glyph glyph-name="Agrave" unicode="&#xc0;" horiz-adv-x="1366" 
d="M-14 0l561 1462h272l563 -1462h-274l-137 387h-584l-137 -387h-264zM377 1900h274l186 -293h-170zM457 582h446l-219 628h-6z" />
    <glyph glyph-name="Aacute" unicode="&#xc1;" horiz-adv-x="1366" 
d="M-14 0l561 1462h272l563 -1462h-274l-137 387h-584l-137 -387h-264zM457 582h446l-219 628h-6zM528 1577l184 293h277l-291 -293h-170z" />
    <glyph glyph-name="Acircumflex" unicode="&#xc2;" horiz-adv-x="1366" 
d="M-14 0l561 1462h272l563 -1462h-274l-137 387h-584l-137 -387h-264zM350 1607l219 293h227l222 -293h-191l-145 185l-144 -185h-188zM457 582h446l-219 628h-6z" />
    <glyph glyph-name="Atilde" unicode="&#xc3;" horiz-adv-x="1366" 
d="M-14 0l561 1462h272l563 -1462h-274l-137 387h-584l-137 -387h-264zM321 1622c9.33301 60 31.3369 111.666 66.0039 154.999c40.667 50.667 89.667 76 147 76c45.333 0 99.666 -13 162.999 -39s106.666 -39 129.999 -39c52 0 86.333 30 103 90h114
c-24.667 -157.333 -100.334 -235.666 -227.001 -234.999c-31.333 0 -80.833 12.667 -148.5 38s-115.834 38 -144.501 38c-23.333 0 -43.5 -9 -60.5 -27s-25.5 -37 -25.5 -57h-117zM457.004 581.999h446l-219 628h-6z" />
    <glyph glyph-name="Adieresis" unicode="&#xc4;" horiz-adv-x="1366" 
d="M-14 0l561 1462h272l563 -1462h-274l-137 387h-584l-137 -387h-264zM391 1630v221h233v-221h-233zM457 582h446l-219 628h-6zM743 1630v221h234v-221h-234z" />
    <glyph glyph-name="Aring" unicode="&#xc5;" horiz-adv-x="1366" 
d="M-14 0l561 1462h272l563 -1462h-274l-137 387h-584l-137 -387h-264zM457 582h446l-219 628h-6zM473 1738c0 57.333 21.167 106.833 63.5 148.5s91.5 62.5 147.5 62.5c57.333 0 106.833 -20.833 148.5 -62.5s62.5 -91.167 62.5 -148.5
c0 -56 -20.833 -105.167 -62.5 -147.5s-91.167 -63.5 -148.5 -63.5c-56 0 -105.167 21.167 -147.5 63.5s-63.5 91.5 -63.5 147.5zM559 1738c0 -32.667 12.667 -61.667 38 -87s54.333 -38 87 -38c34 0 63.333 12.667 88 38s37 54.333 37 87c0 34 -12.333 63.333 -37 88
s-54 37 -88 37c-32.667 0 -61.667 -12.333 -87 -37s-38 -54 -38 -88z" />
    <glyph glyph-name="AE" unicode="&#xc6;" horiz-adv-x="1972" 
d="M-14 0l727 1462h1179v-221h-712v-383h667v-209h-667v-428h725v-221h-969v375h-490l-176 -375h-284zM541 569h395v672h-74z" />
    <glyph glyph-name="Ccedilla" unicode="&#xc7;" horiz-adv-x="1478" 
d="M78 731c0 217.333 62 397.665 186 540.998c130 150 301.333 225 514 225c168 0 308.667 -43.667 422 -131c117.333 -91.333 183.666 -214.333 198.999 -369h-256c-49.333 194 -171 291 -365 291c-146 0 -259.333 -58 -340 -174c-69.333 -101.333 -104 -229 -104 -383
s34.667 -281.667 104 -383c80.667 -116 194 -174 340 -174c109.333 0 197.333 37.667 264 113c62 68 98.333 158 109 270h250c-10.667 -173.333 -71.667 -314.666 -183 -423.999s-253 -164.666 -425 -165.999l-66 -86v-4c10.667 4 33.334 6 68.001 6
c45.333 0 84 -12.333 116 -37c38 -28.667 57.333 -66.667 58 -114c0 -64 -26.667 -112.667 -80 -146c-44 -26 -100 -39 -168 -39c-91.333 0 -161.666 14.333 -210.999 43l37 82c65.333 -22 109.666 -32.667 132.999 -32c83.333 0 125 28 125 84
c0 24.667 -9.5 43.667 -28.5 57s-40.833 20 -65.5 20c-30 0 -56.667 -6.66699 -80 -20l-45 39l112 149c-190 19.333 -342 102.666 -456 249.999c-109.333 140.667 -164 311.334 -164 512.001z" />
    <glyph glyph-name="Egrave" unicode="&#xc8;" horiz-adv-x="1290" 
d="M156 0v1462h1052v-221h-796v-383h737v-209h-737v-428h811v-221h-1067zM340 1900h274l186 -293h-170z" />
    <glyph glyph-name="Eacute" unicode="&#xc9;" horiz-adv-x="1290" 
d="M156 0v1462h1052v-221h-796v-383h737v-209h-737v-428h811v-221h-1067zM491 1607l184 293h277l-291 -293h-170z" />
    <glyph glyph-name="Ecircumflex" unicode="&#xca;" horiz-adv-x="1290" 
d="M156 0v1462h1052v-221h-796v-383h737v-209h-737v-428h811v-221h-1067zM313 1607l219 293h227l222 -293h-191l-145 185l-144 -185h-188z" />
    <glyph glyph-name="Edieresis" unicode="&#xcb;" horiz-adv-x="1290" 
d="M156 0v1462h1052v-221h-796v-383h737v-209h-737v-428h811v-221h-1067zM354 1630v221h233v-221h-233zM706 1630v221h234v-221h-234z" />
    <glyph glyph-name="Igrave" unicode="&#xcc;" horiz-adv-x="569" 
d="M-20 1900h274l186 -293h-170zM156 0v1462h256v-1462h-256z" />
    <glyph glyph-name="Iacute" unicode="&#xcd;" horiz-adv-x="569" 
d="M131 1597l184 293h277l-291 -293h-170zM156 0v1462h256v-1462h-256z" />
    <glyph glyph-name="Icircumflex" unicode="&#xce;" horiz-adv-x="569" 
d="M-47 1607l219 293h227l222 -293h-191l-145 185l-144 -185h-188zM156 0v1462h256v-1462h-256z" />
    <glyph glyph-name="Idieresis" unicode="&#xcf;" horiz-adv-x="569" 
d="M-6 1630v221h233v-221h-233zM156 0v1462h256v-1462h-256zM346 1630v221h234v-221h-234z" />
    <glyph glyph-name="Eth" unicode="&#xd0;" horiz-adv-x="1478" 
d="M18 649l-0.000976562 209h138v604h606c214.667 0 378.334 -71.667 491.001 -215c102.667 -128.667 154 -300.667 154 -516c0 -216 -51.333 -388 -154 -516c-113.333 -143.333 -277 -215 -491 -215h-606v649h-138zM411.999 209l252 0.000976562
c186 0 317.667 50.333 395 151c61.333 82 92 205.667 92 371s-30.667 289 -92 371c-78 101.333 -209.667 151.666 -395 150.999h-252v-395h399v-209h-399v-440z" />
    <glyph glyph-name="Ntilde" unicode="&#xd1;" horiz-adv-x="1478" 
d="M145 0v1462h271l667 -1077h4v1077h244v-1462h-270l-666 1075h-6v-1075h-244zM379 1622c9.33301 60 31.3369 111.666 66.0039 154.999c40.667 50.667 89.667 76 147 76c45.333 0 99.666 -13 162.999 -39s106.666 -39 129.999 -39c52 0 86.333 30 103 90h114
c-24.667 -157.333 -100.334 -235.666 -227.001 -234.999c-31.333 0 -80.833 12.667 -148.5 38s-115.834 38 -144.501 38c-23.333 0 -43.5 -9 -60.5 -27s-25.5 -37 -25.5 -57h-117z" />
    <glyph glyph-name="Ograve" unicode="&#xd2;" horiz-adv-x="1556" 
d="M78 731c0 216 62 396.334 186 541.001c130 150 301.333 225 514 225s384 -75 514 -225c124 -144.667 186.333 -325 187 -541c0 -216 -62.333 -395.333 -187 -538c-130 -151.333 -301.333 -227.333 -514 -228c-212.667 0 -384 76 -514 228
c-124 143.333 -186 322.666 -186 537.999zM334 731.001c0 -154 34.667 -281.667 104 -383c80.667 -116 194 -174 340 -174s259.333 58 340 174c69.333 101.333 104.333 229 105 383c0 154 -35 281.667 -105 383c-80.667 116 -194 174 -340 174s-259.333 -58 -340 -174
c-69.333 -101.333 -104 -229 -104 -383zM473 1900h274l186 -293h-170z" />
    <glyph glyph-name="Oacute" unicode="&#xd3;" horiz-adv-x="1556" 
d="M78 731c0 216 62 396.334 186 541.001c130 150 301.333 225 514 225s384 -75 514 -225c124 -144.667 186.333 -325 187 -541c0 -216 -62.333 -395.333 -187 -538c-130 -151.333 -301.333 -227.333 -514 -228c-212.667 0 -384 76 -514 228
c-124 143.333 -186 322.666 -186 537.999zM334 731.001c0 -154 34.667 -281.667 104 -383c80.667 -116 194 -174 340 -174s259.333 58 340 174c69.333 101.333 104.333 229 105 383c0 154 -35 281.667 -105 383c-80.667 116 -194 174 -340 174s-259.333 -58 -340 -174
c-69.333 -101.333 -104 -229 -104 -383zM624 1577l184 293h277l-291 -293h-170z" />
    <glyph glyph-name="Ocircumflex" unicode="&#xd4;" horiz-adv-x="1556" 
d="M78 731c0 216 62 396.334 186 541.001c130 150 301.333 225 514 225s384 -75 514 -225c124 -144.667 186.333 -325 187 -541c0 -216 -62.333 -395.333 -187 -538c-130 -151.333 -301.333 -227.333 -514 -228c-212.667 0 -384 76 -514 228
c-124 143.333 -186 322.666 -186 537.999zM334 731.001c0 -154 34.667 -281.667 104 -383c80.667 -116 194 -174 340 -174s259.333 58 340 174c69.333 101.333 104.333 229 105 383c0 154 -35 281.667 -105 383c-80.667 116 -194 174 -340 174s-259.333 -58 -340 -174
c-69.333 -101.333 -104 -229 -104 -383zM446 1607l219 293h227l222 -293h-191l-145 185l-144 -185h-188z" />
    <glyph glyph-name="Otilde" unicode="&#xd5;" horiz-adv-x="1556" 
d="M78 731c0 216 62 396.334 186 541.001c130 150 301.333 225 514 225s384 -75 514 -225c124 -144.667 186.333 -325 187 -541c0 -216 -62.333 -395.333 -187 -538c-130 -151.333 -301.333 -227.333 -514 -228c-212.667 0 -384 76 -514 228
c-124 143.333 -186 322.666 -186 537.999zM334 731.001c0 -154 34.667 -281.667 104 -383c80.667 -116 194 -174 340 -174s259.333 58 340 174c69.333 101.333 104.333 229 105 383c0 154 -35 281.667 -105 383c-80.667 116 -194 174 -340 174s-259.333 -58 -340 -174
c-69.333 -101.333 -104 -229 -104 -383zM417 1622c9.33301 60 31.3369 111.666 66.0039 154.999c40.667 50.667 89.667 76 147 76c45.333 0 99.666 -13 162.999 -39s106.666 -39 129.999 -39c52 0 86.333 30 103 90h114
c-24.667 -157.333 -100.334 -235.666 -227.001 -234.999c-31.333 0 -80.833 12.667 -148.5 38s-115.834 38 -144.501 38c-23.333 0 -43.5 -9 -60.5 -27s-25.5 -37 -25.5 -57h-117z" />
    <glyph glyph-name="Odieresis" unicode="&#xd6;" horiz-adv-x="1556" 
d="M78 731c0 216 62 396.334 186 541.001c130 150 301.333 225 514 225s384 -75 514 -225c124 -144.667 186.333 -325 187 -541c0 -216 -62.333 -395.333 -187 -538c-130 -151.333 -301.333 -227.333 -514 -228c-212.667 0 -384 76 -514 228
c-124 143.333 -186 322.666 -186 537.999zM334 731.001c0 -154 34.667 -281.667 104 -383c80.667 -116 194 -174 340 -174s259.333 58 340 174c69.333 101.333 104.333 229 105 383c0 154 -35 281.667 -105 383c-80.667 116 -194 174 -340 174s-259.333 -58 -340 -174
c-69.333 -101.333 -104 -229 -104 -383zM487 1630v221h233v-221h-233zM839 1630v221h234v-221h-234z" />
    <glyph glyph-name="multiply" unicode="&#xd7;" horiz-adv-x="1228" 
d="M113 162l356 356l-356 356l176 115l323 -325l328 325l176 -115l-358 -356l358 -356l-176 -115l-328 328l-323 -328z" />
    <glyph glyph-name="Oslash" unicode="&#xd8;" horiz-adv-x="1556" 
d="M78 731c0 216 62 396.333 186 541c130 150 301.333 225 514 225c181.333 0 333 -55.333 455 -166l153 172l89 -73l-162 -183c110.667 -142 166 -314 166 -516c0 -216 -62.333 -395.333 -187 -538c-130 -151.333 -301.333 -227.333 -514 -228c-182.667 0 -334 56 -454 168
l-156 -174l-86 74l162 184c-110.667 140.667 -166 312 -166 514zM334 731c0 -130 24.667 -240 74 -330l673 758c-75.333 86 -176.333 129 -303 129c-146 0 -259.333 -58 -340 -174c-69.333 -101.333 -104 -229 -104 -383zM475 303c79.333 -86 180.333 -129 303 -129
c146 0 259.333 58 340 174c69.333 101.333 104.333 229 105 383c0 128.667 -25.333 238.667 -76 330z" />
    <glyph glyph-name="Ugrave" unicode="&#xd9;" horiz-adv-x="1478" 
d="M139 526v936.002h256v-852c0 -132.667 15.667 -227.334 47 -284.001c50.667 -92.667 149.667 -139.334 297 -140.001c147.333 0 246.333 46.667 297 140c31.333 57.333 47 152 47 284v852h256v-936c0 -182.667 -54.333 -323.334 -163 -422.001
c-105.333 -92.667 -251 -139 -437 -139s-330.667 46.333 -434 139c-110.667 98.667 -166 239.334 -166 422.001zM435 1900h274l186 -293h-170z" />
    <glyph glyph-name="Uacute" unicode="&#xda;" horiz-adv-x="1478" 
d="M139 526v936.002h256v-852c0 -132.667 15.667 -227.334 47 -284.001c50.667 -92.667 149.667 -139.334 297 -140.001c147.333 0 246.333 46.667 297 140c31.333 57.333 47 152 47 284v852h256v-936c0 -182.667 -54.333 -323.334 -163 -422.001
c-105.333 -92.667 -251 -139 -437 -139s-330.667 46.333 -434 139c-110.667 98.667 -166 239.334 -166 422.001zM586 1577l184 293h277l-291 -293h-170z" />
    <glyph glyph-name="Ucircumflex" unicode="&#xdb;" horiz-adv-x="1478" 
d="M139 526v936.002h256v-852c0 -132.667 15.667 -227.334 47 -284.001c50.667 -92.667 149.667 -139.334 297 -140.001c147.333 0 246.333 46.667 297 140c31.333 57.333 47 152 47 284v852h256v-936c0 -182.667 -54.333 -323.334 -163 -422.001
c-105.333 -92.667 -251 -139 -437 -139s-330.667 46.333 -434 139c-110.667 98.667 -166 239.334 -166 422.001zM408 1607l219 293h227l222 -293h-191l-145 185l-144 -185h-188z" />
    <glyph glyph-name="Udieresis" unicode="&#xdc;" horiz-adv-x="1478" 
d="M139 526v936.002h256v-852c0 -132.667 15.667 -227.334 47 -284.001c50.667 -92.667 149.667 -139.334 297 -140.001c147.333 0 246.333 46.667 297 140c31.333 57.333 47 152 47 284v852h256v-936c0 -182.667 -54.333 -323.334 -163 -422.001
c-105.333 -92.667 -251 -139 -437 -139s-330.667 46.333 -434 139c-110.667 98.667 -166 239.334 -166 422.001zM449 1630v221h233v-221h-233zM801 1630v221h234v-221h-234z" />
    <glyph glyph-name="Yacute" unicode="&#xdd;" horiz-adv-x="1327" 
d="M-12 1462h297l387 -655l381 655h286l-546 -889v-573h-256v573zM510 1577l184 293h277l-291 -293h-170z" />
    <glyph glyph-name="Thorn" unicode="&#xde;" horiz-adv-x="1366" 
d="M156 0v1462h256v-221h389c186 0 321 -52.667 405 -158c61.333 -76.667 92 -175 92 -295c0 -118.667 -30.667 -215.334 -92 -290.001c-84.667 -105.333 -219.667 -158 -405 -158h-389v-340h-256zM412 549.001l374 0.000976562c68 0 125.333 17 172 51
c56 42 84 105.667 84 191c0 161.333 -83.667 241.666 -251 240.999h-379v-483z" />
    <glyph glyph-name="germandbls" unicode="&#xdf;" horiz-adv-x="1175" 
d="M129 0l0.00292969 1071c0 131.333 41.667 235.166 125 311.499s191.333 114.5 324 114.5c117.333 0 217.666 -32 300.999 -96c90 -69.333 135 -160.333 135 -273c0 -72.667 -17 -136 -51 -190c-36.667 -58.667 -89.334 -98.334 -158.001 -119.001v-4
c83.333 -9.33301 151 -49.666 203 -120.999c48 -65.333 71.667 -141.666 71 -228.999c0 -143.333 -42.667 -261.5 -128 -354.5s-199 -139.5 -341 -139.5c-36.667 0 -74.667 2 -114 6v185c20.667 -4 47 -6 79 -6c180 0 270.333 106.333 271 319
c0 87.333 -37.667 154.333 -113 201c-54.667 34 -133 51 -235 51v154c91.333 0 158.666 17.667 201.999 53c53.333 42 80 99.333 80 172c0 138 -69 207 -207 207c-140.667 0 -211 -88.667 -211 -266v-1047h-233z" />
    <glyph glyph-name="agrave" unicode="&#xe0;" 
d="M66 281c0 117.333 43.666 202 130.999 254c53.333 31.333 145.333 56.333 276 75l221 33c64 19.333 96.333 58.333 97 117c0 95.333 -73.333 143 -220 143c-146 0 -223.667 -56 -233 -168h-234c13.333 234.667 174 352 482 352c116 0 212 -23 288 -69
c90.667 -54.667 136 -134 136 -238v-544c0 -53.333 18.333 -80 55 -80c22 0 41 1.33301 57 4v-162c-50.667 -18 -99.667 -27 -147 -27c-104 0 -164 43 -180 129c-87.333 -86 -209.666 -129 -366.999 -129c-102.667 0 -186.667 26 -252 78c-74 56 -110.667 133.333 -110 232z
M264.999 1497h274l186 -293h-170zM298.999 291c0 -46.667 25.999 -82.3359 77.999 -107.003c39.333 -19.333 85 -28.666 137 -27.999c62.667 0 119.334 15 170.001 45c61.333 36.667 92 88.334 92 155.001v174c-30 -19.333 -73.667 -33.666 -131 -42.999l-156 -20
c-126.667 -22 -190 -80.667 -190 -176z" />
    <glyph glyph-name="aacute" unicode="&#xe1;" 
d="M66 281c0 117.333 43.666 202 130.999 254c53.333 31.333 145.333 56.333 276 75l221 33c64 19.333 96.333 58.333 97 117c0 95.333 -73.333 143 -220 143c-146 0 -223.667 -56 -233 -168h-234c13.333 234.667 174 352 482 352c116 0 212 -23 288 -69
c90.667 -54.667 136 -134 136 -238v-544c0 -53.333 18.333 -80 55 -80c22 0 41 1.33301 57 4v-162c-50.667 -18 -99.667 -27 -147 -27c-104 0 -164 43 -180 129c-87.333 -86 -209.666 -129 -366.999 -129c-102.667 0 -186.667 26 -252 78c-74 56 -110.667 133.333 -110 232z
M298.999 291c0 -46.667 25.999 -82.3359 77.999 -107.003c39.333 -19.333 85 -28.666 137 -27.999c62.667 0 119.334 15 170.001 45c61.333 36.667 92 88.334 92 155.001v174c-30 -19.333 -73.667 -33.666 -131 -42.999l-156 -20c-126.667 -22 -190 -80.667 -190 -176z
M415.998 1204l184 293h277l-291 -293h-170z" />
    <glyph glyph-name="acircumflex" unicode="&#xe2;" 
d="M66 281c0 117.333 43.666 202 130.999 254c53.333 31.333 145.333 56.333 276 75l221 33c64 19.333 96.333 58.333 97 117c0 95.333 -73.333 143 -220 143c-146 0 -223.667 -56 -233 -168h-234c13.333 234.667 174 352 482 352c116 0 212 -23 288 -69
c90.667 -54.667 136 -134 136 -238v-544c0 -53.333 18.333 -80 55 -80c22 0 41 1.33301 57 4v-162c-50.667 -18 -99.667 -27 -147 -27c-104 0 -164 43 -180 129c-87.333 -86 -209.666 -129 -366.999 -129c-102.667 0 -186.667 26 -252 78c-74 56 -110.667 133.333 -110 232z
M237.999 1204l219 293h227l222 -293h-191l-145 185l-144 -185h-188zM298.999 291c0 -46.667 25.999 -82.3359 77.999 -107.003c39.333 -19.333 85 -28.666 137 -27.999c62.667 0 119.334 15 170.001 45c61.333 36.667 92 88.334 92 155.001v174
c-30 -19.333 -73.667 -33.666 -131 -42.999l-156 -20c-126.667 -22 -190 -80.667 -190 -176z" />
    <glyph glyph-name="atilde" unicode="&#xe3;" 
d="M66 281c0 117.333 43.666 202 130.999 254c53.333 31.333 145.333 56.333 276 75l221 33c64 19.333 96.333 58.333 97 117c0 95.333 -73.333 143 -220 143c-146 0 -223.667 -56 -233 -168h-234c13.333 234.667 174 352 482 352c116 0 212 -23 288 -69
c90.667 -54.667 136 -134 136 -238v-544c0 -53.333 18.333 -80 55 -80c22 0 41 1.33301 57 4v-162c-50.667 -18 -99.667 -27 -147 -27c-104 0 -164 43 -180 129c-87.333 -86 -209.666 -129 -366.999 -129c-102.667 0 -186.667 26 -252 78c-74 56 -110.667 133.333 -110 232z
M208.999 1219c9.33301 60 31.3369 111.666 66.0039 154.999c40.667 50.667 89.667 76 147 76c45.333 0 99.666 -13 162.999 -39s106.666 -39 129.999 -39c52 0 86.333 30 103 90h114c-24.667 -157.333 -100.334 -235.666 -227.001 -234.999
c-31.333 0 -80.833 12.667 -148.5 38s-115.834 38 -144.501 38c-23.333 0 -43.5 -9 -60.5 -27s-25.5 -37 -25.5 -57h-117zM299.003 290.999c0 -46.667 25.999 -82.3359 77.999 -107.003c39.333 -19.333 85 -28.666 137 -27.999c62.667 0 119.334 15 170.001 45
c61.333 36.667 92 88.334 92 155.001v174c-30 -19.333 -73.667 -33.666 -131 -42.999l-156 -20c-126.667 -22 -190 -80.667 -190 -176z" />
    <glyph glyph-name="adieresis" unicode="&#xe4;" 
d="M66 281c0 117.333 43.666 202 130.999 254c53.333 31.333 145.333 56.333 276 75l221 33c64 19.333 96.333 58.333 97 117c0 95.333 -73.333 143 -220 143c-146 0 -223.667 -56 -233 -168h-234c13.333 234.667 174 352 482 352c116 0 212 -23 288 -69
c90.667 -54.667 136 -134 136 -238v-544c0 -53.333 18.333 -80 55 -80c22 0 41 1.33301 57 4v-162c-50.667 -18 -99.667 -27 -147 -27c-104 0 -164 43 -180 129c-87.333 -86 -209.666 -129 -366.999 -129c-102.667 0 -186.667 26 -252 78c-74 56 -110.667 133.333 -110 232z
M278.999 1227v221h233v-221h-233zM298.999 291c0 -46.667 25.999 -82.3359 77.999 -107.003c39.333 -19.333 85 -28.666 137 -27.999c62.667 0 119.334 15 170.001 45c61.333 36.667 92 88.334 92 155.001v174c-30 -19.333 -73.667 -33.666 -131 -42.999l-156 -20
c-126.667 -22 -190 -80.667 -190 -176zM630.998 1227v221h234v-221h-234z" />
    <glyph glyph-name="aring" unicode="&#xe5;" 
d="M66 281c0 117.333 43.666 202 130.999 254c53.333 31.333 145.333 56.333 276 75l221 33c64 19.333 96.333 58.333 97 117c0 95.333 -73.333 143 -220 143c-146 0 -223.667 -56 -233 -168h-234c13.333 234.667 174 352 482 352c116 0 212 -23 288 -69
c90.667 -54.667 136 -134 136 -238v-544c0 -53.333 18.333 -80 55 -80c22 0 41 1.33301 57 4v-162c-50.667 -18 -99.667 -27 -147 -27c-104 0 -164 43 -180 129c-87.333 -86 -209.666 -129 -366.999 -129c-102.667 0 -186.667 26 -252 78c-74 56 -110.667 133.333 -110 232z
M298.999 291c0 -46.667 25.999 -82.3359 77.999 -107.003c39.333 -19.333 85 -28.666 137 -27.999c62.667 0 119.334 15 170.001 45c61.333 36.667 92 88.334 92 155.001v174c-30 -19.333 -73.667 -33.666 -131 -42.999l-156 -20c-126.667 -22 -190 -80.667 -190 -176z
M360.998 1335c0 57.333 21.167 106.833 63.5 148.5s91.5 62.5 147.5 62.5c57.333 0 106.833 -20.833 148.5 -62.5s62.5 -91.167 62.5 -148.5c0 -56 -20.833 -105.167 -62.5 -147.5s-91.167 -63.5 -148.5 -63.5c-56 0 -105.167 21.167 -147.5 63.5s-63.5 91.5 -63.5 147.5z
M446.998 1335c0 -32.667 12.667 -61.667 38 -87s54.333 -38 87 -38c34 0 63.333 12.667 88 38s37 54.333 37 87c0 34 -12.333 63.333 -37 88s-54 37 -88 37c-32.667 0 -61.667 -12.333 -87 -37s-38 -54 -38 -88z" />
    <glyph glyph-name="ae" unicode="&#xe6;" horiz-adv-x="1820" 
d="M66 281c0 117.333 43.667 202 131 254c53.333 31.333 145.333 56.333 276 75c139.333 20.667 211 31.667 215 33c60 18 90 57 90 117c0 95.333 -69 143 -207 143c-146 0 -223.667 -56 -233 -168h-234c8 125.333 60.667 218.333 158 279
c80.667 49.333 186.667 73.666 318 72.999c174.667 0 294 -47.667 358 -143c72.667 95.333 184.667 143 336 143c162.667 0 287 -51.667 373 -155c80.667 -96.667 120.667 -229 120 -397c0 -22 -0.666992 -44 -2 -66h-768c-1.33301 -87.333 20.667 -159.666 66 -216.999
c49.333 -64 119.666 -96 210.999 -96c124.667 0 208 59.333 250 178h233c-30 -112 -88 -200.5 -174 -265.5s-187.667 -97.5 -305 -97.5c-186 0 -315.667 65 -389 195c-87.333 -130 -234 -195 -440 -195c-110.667 0 -201 26 -271 78
c-75.333 54.667 -112.666 132 -111.999 232zM299 291c0 -90 71 -134.999 213 -134.999c69.333 0 129.333 18.333 180 55c56 40 84 92.667 84 158v157c-20.667 -19.333 -61 -33 -121 -41c-54.667 -5.33301 -109 -11.333 -163 -18
c-128.667 -20.667 -193 -79.334 -193 -176.001zM997 623.001h535.001c1.33301 84.667 -21.834 152.5 -69.501 203.5s-113.834 76.5 -198.501 76.5c-79.333 0 -143 -28 -191 -84c-45.333 -50 -70.666 -115.333 -75.999 -196z" />
    <glyph glyph-name="ccedilla" unicode="&#xe7;" 
d="M72 518c0 168 43.665 303.333 130.998 406c92.667 109.333 223 163.666 391 162.999c130 0 237 -31.333 321 -94c92.667 -68 144.667 -164 156 -288h-233c-19.333 132.667 -100 198.667 -242 198c-78 0 -141.333 -24 -190 -72
c-66.667 -65.333 -100.334 -169.666 -101.001 -312.999c0 -100 21.333 -182.667 64 -248c50.667 -76.667 123 -114.667 217 -114c68 0 124.333 21.333 169 64s72.334 101.667 83.001 177h233c-42 -268.667 -189.333 -409.334 -442 -422.001l-72 -94v-4
c10.667 4 33.334 6 68.001 6c45.333 0 84 -12.333 116 -37c38 -28.667 57.333 -66.667 58 -114c0 -64 -26.667 -112.667 -80 -146c-44 -26 -100 -39 -168 -39c-91.333 0 -161.666 14.333 -210.999 43l37 82c65.333 -22 109.666 -32.667 132.999 -32c83.333 0 125 28 125 84
c0 24.667 -9.5 43.667 -28.5 57s-40.833 20 -65.5 20c-30 0 -56.667 -6.66699 -80 -20l-45 39l116 155c-146 10.667 -260 67.334 -342 170.001c-79.333 96.667 -118.666 221 -117.999 373z" />
    <glyph glyph-name="egrave" unicode="&#xe8;" 
d="M72 528c0 155.333 45.666 286.668 136.999 394.001c96.667 110.667 221.667 165.667 375 165c148.667 0 270.667 -54.333 366 -163c91.333 -102.667 137 -228.334 137 -377.001c0 -26 -1.33301 -52 -4 -78h-778c0 -88.667 23.333 -161.667 70 -219
c50.667 -62.667 122.334 -94 215.001 -94c131.333 0 217.333 58.667 258 176h221c-24.667 -113.333 -81 -201.833 -169 -265.5s-191.333 -95.5 -310 -95.5c-162.667 0 -289.667 51.333 -381 154s-137 237 -137 403zM264.999 1497h274l186 -293h-170zM304.999 623.002h545
c-4 78 -30.333 144.167 -79 198.5s-111 81.5 -187 81.5c-79.333 0 -145 -26.5 -197 -79.5s-79.333 -119.833 -82 -200.5z" />
    <glyph glyph-name="eacute" unicode="&#xe9;" 
d="M72 528c0 155.333 45.666 286.668 136.999 394.001c96.667 110.667 221.667 165.667 375 165c148.667 0 270.667 -54.333 366 -163c91.333 -102.667 137 -228.334 137 -377.001c0 -26 -1.33301 -52 -4 -78h-778c0 -88.667 23.333 -161.667 70 -219
c50.667 -62.667 122.334 -94 215.001 -94c131.333 0 217.333 58.667 258 176h221c-24.667 -113.333 -81 -201.833 -169 -265.5s-191.333 -95.5 -310 -95.5c-162.667 0 -289.667 51.333 -381 154s-137 237 -137 403zM304.999 623.002h545c-4 78 -30.333 144.167 -79 198.5
s-111 81.5 -187 81.5c-79.333 0 -145 -26.5 -197 -79.5s-79.333 -119.833 -82 -200.5zM415.999 1204l184 293h277l-291 -293h-170z" />
    <glyph glyph-name="ecircumflex" unicode="&#xea;" 
d="M72 528c0 155.333 45.666 286.668 136.999 394.001c96.667 110.667 221.667 165.667 375 165c148.667 0 270.667 -54.333 366 -163c91.333 -102.667 137 -228.334 137 -377.001c0 -26 -1.33301 -52 -4 -78h-778c0 -88.667 23.333 -161.667 70 -219
c50.667 -62.667 122.334 -94 215.001 -94c131.333 0 217.333 58.667 258 176h221c-24.667 -113.333 -81 -201.833 -169 -265.5s-191.333 -95.5 -310 -95.5c-162.667 0 -289.667 51.333 -381 154s-137 237 -137 403zM237.999 1204l219 293h227l222 -293h-191l-145 185
l-144 -185h-188zM304.999 623.002h545c-4 78 -30.333 144.167 -79 198.5s-111 81.5 -187 81.5c-79.333 0 -145 -26.5 -197 -79.5s-79.333 -119.833 -82 -200.5z" />
    <glyph glyph-name="edieresis" unicode="&#xeb;" 
d="M72 528c0 155.333 45.666 286.668 136.999 394.001c96.667 110.667 221.667 165.667 375 165c148.667 0 270.667 -54.333 366 -163c91.333 -102.667 137 -228.334 137 -377.001c0 -26 -1.33301 -52 -4 -78h-778c0 -88.667 23.333 -161.667 70 -219
c50.667 -62.667 122.334 -94 215.001 -94c131.333 0 217.333 58.667 258 176h221c-24.667 -113.333 -81 -201.833 -169 -265.5s-191.333 -95.5 -310 -95.5c-162.667 0 -289.667 51.333 -381 154s-137 237 -137 403zM278.999 1227v221h233v-221h-233zM304.999 623.002h545
c-4 78 -30.333 144.167 -79 198.5s-111 81.5 -187 81.5c-79.333 0 -145 -26.5 -197 -79.5s-79.333 -119.833 -82 -200.5zM630.999 1227v221h234v-221h-234z" />
    <glyph glyph-name="igrave" unicode="&#xec;" horiz-adv-x="493" 
d="M-59 1497h274l186 -293h-170zM129 0v1059h233v-1059h-233z" />
    <glyph glyph-name="iacute" unicode="&#xed;" horiz-adv-x="493" 
d="M92 1204l184 293h277l-291 -293h-170zM129 0v1059h233v-1059h-233z" />
    <glyph glyph-name="icircumflex" unicode="&#xee;" horiz-adv-x="493" 
d="M-86 1204l219 293h227l222 -293h-191l-145 185l-144 -185h-188zM129 0v1059h233v-1059h-233z" />
    <glyph glyph-name="idieresis" unicode="&#xef;" horiz-adv-x="493" 
d="M-45 1227v221h233v-221h-233zM129 0v1059h233v-1059h-233zM307 1227v221h234v-221h-234z" />
    <glyph glyph-name="eth" unicode="&#xf0;" horiz-adv-x="1214" 
d="M86 516c0 140.667 40.998 261.002 122.998 361.002c86 106.667 197.333 159.667 334 159c110.667 0 208.334 -30 293.001 -90h4c-39.333 87.333 -113.333 176.666 -222 267.999l-221 -106l-102 100l197 95c-39.333 18 -97.666 41 -174.999 69l156 125
c75.333 -24.667 146.333 -58.667 213 -102l215 102l100 -100l-192 -92c211.333 -173.333 317 -397.333 317 -672c0 -196.667 -41.667 -352.334 -125 -467.001c-95.333 -130 -237.333 -195 -426 -195c-152.667 0 -272.667 51.333 -360 154c-86 98 -129 228.333 -129 391z
M318.998 502.002c0 -100 22.001 -181.333 66.001 -244c48 -68 116.333 -102 205 -102c90 0 164.333 35.333 223 106c53.333 66.667 80 146.667 80 240c0 96.667 -22 177 -66 241c-50.667 72.667 -122.334 109 -215.001 109c-195.333 0 -293 -116.667 -293 -350z" />
    <glyph glyph-name="ntilde" unicode="&#xf1;" horiz-adv-x="1175" 
d="M123 0l0.000976562 1059h221v-156l4 -4c75.333 125.333 185.333 188 330 188c117.333 0 209.166 -30.667 275.499 -92s99.5 -150.666 99.5 -267.999v-727h-234v666c0 158.667 -69 237.667 -207 237c-76.667 0 -138.5 -26.667 -185.5 -80s-70.5 -119.333 -70.5 -198v-625
h-233zM227.001 1219c9.33301 60 31.3369 111.666 66.0039 154.999c40.667 50.667 89.667 76 147 76c45.333 0 99.666 -13 162.999 -39s106.666 -39 129.999 -39c52 0 86.333 30 103 90h114c-24.667 -157.333 -100.334 -235.666 -227.001 -234.999
c-31.333 0 -80.833 12.667 -148.5 38s-115.834 38 -144.501 38c-23.333 0 -43.5 -9 -60.5 -27s-25.5 -37 -25.5 -57h-117z" />
    <glyph glyph-name="ograve" unicode="&#xf2;" horiz-adv-x="1214" 
d="M74 530c0 165.333 47.333 299.5 142 402.5s225.334 154.5 392.001 154.5s298.667 -52.333 396 -157c92.667 -101.333 139 -234.666 139 -399.999c0 -166.667 -46.333 -300.334 -139 -401.001c-97.333 -105.333 -229.333 -158 -396 -158s-298.334 52.667 -395.001 158
c-92.667 101.333 -139 235 -139 401zM301 1497h274l186 -293h-170zM307 530c0 -102.667 24.001 -188 72.001 -256c54.667 -78.667 131 -118 229 -118s174.667 39.333 230 118c48 68 71.667 153.333 71 256c0 101.333 -23.667 186 -71 254
c-54.667 79.333 -131.334 119 -230.001 119c-98 0 -174.333 -39.667 -229 -119c-48 -68 -72 -152.667 -72 -254z" />
    <glyph glyph-name="oacute" unicode="&#xf3;" horiz-adv-x="1214" 
d="M74 530c0 165.333 47.333 299.5 142 402.5s225.334 154.5 392.001 154.5s298.667 -52.333 396 -157c92.667 -101.333 139 -234.666 139 -399.999c0 -166.667 -46.333 -300.334 -139 -401.001c-97.333 -105.333 -229.333 -158 -396 -158s-298.334 52.667 -395.001 158
c-92.667 101.333 -139 235 -139 401zM307 530c0 -102.667 24.001 -188 72.001 -256c54.667 -78.667 131 -118 229 -118s174.667 39.333 230 118c48 68 71.667 153.333 71 256c0 101.333 -23.667 186 -71 254c-54.667 79.333 -131.334 119 -230.001 119
c-98 0 -174.333 -39.667 -229 -119c-48 -68 -72 -152.667 -72 -254zM452.001 1204l184 293h277l-291 -293h-170z" />
    <glyph glyph-name="ocircumflex" unicode="&#xf4;" horiz-adv-x="1214" 
d="M74 530c0 165.333 47.333 299.5 142 402.5s225.334 154.5 392.001 154.5s298.667 -52.333 396 -157c92.667 -101.333 139 -234.666 139 -399.999c0 -166.667 -46.333 -300.334 -139 -401.001c-97.333 -105.333 -229.333 -158 -396 -158s-298.334 52.667 -395.001 158
c-92.667 101.333 -139 235 -139 401zM274 1204l219 293h227l222 -293h-191l-145 185l-144 -185h-188zM307 530c0 -102.667 24.001 -188 72.001 -256c54.667 -78.667 131 -118 229 -118s174.667 39.333 230 118c48 68 71.667 153.333 71 256c0 101.333 -23.667 186 -71 254
c-54.667 79.333 -131.334 119 -230.001 119c-98 0 -174.333 -39.667 -229 -119c-48 -68 -72 -152.667 -72 -254z" />
    <glyph glyph-name="otilde" unicode="&#xf5;" horiz-adv-x="1214" 
d="M74 530c0 165.333 47.333 299.5 142 402.5s225.334 154.5 392.001 154.5s298.667 -52.333 396 -157c92.667 -101.333 139 -234.666 139 -399.999c0 -166.667 -46.333 -300.334 -139 -401.001c-97.333 -105.333 -229.333 -158 -396 -158s-298.334 52.667 -395.001 158
c-92.667 101.333 -139 235 -139 401zM245 1219c9.33301 60 31.3369 111.666 66.0039 154.999c40.667 50.667 89.667 76 147 76c45.333 0 99.666 -13 162.999 -39s106.666 -39 129.999 -39c52 0 86.333 30 103 90h114c-24.667 -157.333 -100.334 -235.666 -227.001 -234.999
c-31.333 0 -80.833 12.667 -148.5 38s-115.834 38 -144.501 38c-23.333 0 -43.5 -9 -60.5 -27s-25.5 -37 -25.5 -57h-117zM307.004 529.999c0 -102.667 24.001 -188 72.001 -256c54.667 -78.667 131 -118 229 -118s174.667 39.333 230 118c48 68 71.667 153.333 71 256
c0 101.333 -23.667 186 -71 254c-54.667 79.333 -131.334 119 -230.001 119c-98 0 -174.333 -39.667 -229 -119c-48 -68 -72 -152.667 -72 -254z" />
    <glyph glyph-name="odieresis" unicode="&#xf6;" horiz-adv-x="1214" 
d="M74 530c0 165.333 47.333 299.5 142 402.5s225.334 154.5 392.001 154.5s298.667 -52.333 396 -157c92.667 -101.333 139 -234.666 139 -399.999c0 -166.667 -46.333 -300.334 -139 -401.001c-97.333 -105.333 -229.333 -158 -396 -158s-298.334 52.667 -395.001 158
c-92.667 101.333 -139 235 -139 401zM307 530c0 -102.667 24.001 -188 72.001 -256c54.667 -78.667 131 -118 229 -118s174.667 39.333 230 118c48 68 71.667 153.333 71 256c0 101.333 -23.667 186 -71 254c-54.667 79.333 -131.334 119 -230.001 119
c-98 0 -174.333 -39.667 -229 -119c-48 -68 -72 -152.667 -72 -254zM315.001 1227v221h233v-221h-233zM667.001 1227v221h234v-221h-234z" />
    <glyph glyph-name="divide" unicode="&#xf7;" horiz-adv-x="1228" 
d="M98 414v209h1032v-209h-1032zM467 96c0 40.667 14.668 75.502 44.001 104.502s63.666 43.5 102.999 43.5s73.833 -14.667 103.5 -44s44.5 -64 44.5 -104c0 -36.667 -14.833 -70.334 -44.5 -101.001s-63.5 -46 -101.5 -46c-39.333 0 -74 14.667 -104 44
s-45 63.666 -45 102.999zM467.001 940.002c0 40.667 14.668 75.334 44.001 104.001s63.666 43 102.999 43s73.833 -14.667 103.5 -44s44.5 -63.666 44.5 -102.999c0 -36.667 -14.833 -70.334 -44.5 -101.001s-63.5 -46 -101.5 -46c-39.333 0 -74 14.667 -104 44
s-45 63.666 -45 102.999z" />
    <glyph glyph-name="oslash" unicode="&#xf8;" horiz-adv-x="1214" 
d="M66 0l132.998 147.002c-83.333 100 -125 227.667 -125 383c0 165.333 47.333 299.5 142 402.5s225.334 154.5 392.001 154.5c142 0 258 -37.333 348 -112l129 141l66 -57l-133 -146c83.333 -102.667 125 -230.334 125 -383.001
c0 -166.667 -46.333 -300.334 -139 -401.001c-96.667 -105.333 -228.667 -158 -396 -158c-139.333 0 -254.666 38.333 -345.999 115l-131 -143zM306.998 530.002c0 -80.667 15.667 -151.667 47 -213l457 500c-53.333 57.333 -121 86 -203 86
c-98 0 -174.333 -39.667 -229 -119c-48 -68 -72 -152.667 -72 -254zM405.998 242.002c53.333 -57.333 120.667 -85.999 202 -85.999c98 0 174.667 39.333 230 118c48 68 71.667 153.333 71 256c0 79.333 -15.667 149.666 -47 210.999z" />
    <glyph glyph-name="ugrave" unicode="&#xf9;" horiz-adv-x="1175" 
d="M123 387l0.00195312 672h233v-649c0 -169.333 67.667 -254 203 -254c173.333 0 260 96 260 288v615h234v-1059h-230v147h-4c-28.667 -52 -71.334 -94.333 -128.001 -127s-114.334 -49 -173.001 -49c-263.333 0 -395 138.667 -395 416zM283.002 1497h274l186 -293h-170z
" />
    <glyph glyph-name="uacute" unicode="&#xfa;" horiz-adv-x="1175" 
d="M123 387l0.00195312 672h233v-649c0 -169.333 67.667 -254 203 -254c173.333 0 260 96 260 288v615h234v-1059h-230v147h-4c-28.667 -52 -71.334 -94.333 -128.001 -127s-114.334 -49 -173.001 -49c-263.333 0 -395 138.667 -395 416zM434.002 1204l184 293h277
l-291 -293h-170z" />
    <glyph glyph-name="ucircumflex" unicode="&#xfb;" horiz-adv-x="1175" 
d="M123 387l0.00195312 672h233v-649c0 -169.333 67.667 -254 203 -254c173.333 0 260 96 260 288v615h234v-1059h-230v147h-4c-28.667 -52 -71.334 -94.333 -128.001 -127s-114.334 -49 -173.001 -49c-263.333 0 -395 138.667 -395 416zM256.002 1204l219 293h227l222 -293
h-191l-145 185l-144 -185h-188z" />
    <glyph glyph-name="udieresis" unicode="&#xfc;" horiz-adv-x="1175" 
d="M123 387l0.00195312 672h233v-649c0 -169.333 67.667 -254 203 -254c173.333 0 260 96 260 288v615h234v-1059h-230v147h-4c-28.667 -52 -71.334 -94.333 -128.001 -127s-114.334 -49 -173.001 -49c-263.333 0 -395 138.667 -395 416zM297.002 1227v221h233v-221h-233z
M649.002 1227v221h234v-221h-234z" />
    <glyph glyph-name="yacute" unicode="&#xfd;" horiz-adv-x="1062" 
d="M6 1059l256 0.000976562l277 -791h4l268 791h244l-412 -1116c-46.667 -125.333 -87.667 -210 -123 -254c-58.667 -72.667 -142.667 -109 -252 -109c-54.667 0 -108.667 4 -162 12v197c57.333 -9.33301 94.333 -14 111 -14c49.333 0 87 13.667 113 41
c18 19.333 35 54.666 51 105.999l27 82zM377 1204l184 293h277l-291 -293h-170z" />
    <glyph glyph-name="thorn" unicode="&#xfe;" horiz-adv-x="1251" 
d="M129 -391l-0.000976562 1853h233v-540h5c31.333 50.667 76.333 90.834 135 120.501s118.667 44.5 180 44.5c160 0 284.333 -55 373 -165c82 -101.333 123 -234 123 -398c0 -154 -37 -281.667 -111 -383c-83.333 -113.333 -198.666 -170 -345.999 -170
c-168 0 -286 55.333 -354 166h-5v-528h-233zM353.999 527.999c0 -109.333 26.667 -198.668 80 -268.001s125.666 -104 216.999 -104c98 0 174 38.667 228 116c43.333 66.667 65 152 65 256c0 102.667 -24.667 189.334 -74 260.001c-54.667 76.667 -127.667 115 -219 115
c-95.333 0 -168.666 -33.5 -219.999 -100.5s-77 -158.5 -77 -274.5z" />
    <glyph glyph-name="ydieresis" unicode="&#xff;" horiz-adv-x="1062" 
d="M6 1059l256 0.000976562l277 -791h4l268 791h244l-412 -1116c-46.667 -125.333 -87.667 -210 -123 -254c-58.667 -72.667 -142.667 -109 -252 -109c-54.667 0 -108.667 4 -162 12v197c57.333 -9.33301 94.333 -14 111 -14c49.333 0 87 13.667 113 41
c18 19.333 35 54.666 51 105.999l27 82zM240 1227v221h233v-221h-233zM592 1227v221h234v-221h-234z" />
    <glyph glyph-name="OE" unicode="&#x152;" horiz-adv-x="2238" 
d="M84 725c0 216 60 396.333 180 541c126.667 154 296 231 508 231c157.333 0 280.333 -50.333 369 -151v116h999v-221h-766v-383h703v-209h-703v-428h780v-221h-1013v131c-94 -110.667 -222.333 -166 -385 -166c-208.667 0 -374.667 76 -498 228
c-116 142 -174 319.333 -174 532zM340 729c0 -151.333 34.667 -277.667 104 -379c79.333 -117.333 191.333 -176 336 -176c104 0 190 30.667 258 92c61.333 55.333 92 116.333 92 183v544c0 82 -28.667 150.333 -86 205c-64 60 -152 90 -264 90
c-144.667 0 -256.667 -59.333 -336 -178c-69.333 -102.667 -104 -229.667 -104 -381z" />
    <glyph glyph-name="oe" unicode="&#x153;" horiz-adv-x="1857" 
d="M72 532c0 158.667 43.6699 289.336 131.003 392.003c92.667 109.333 217.667 163.666 375 162.999c180 0 303.333 -59.333 370 -178c75.333 118.667 199 178 371 178s299.667 -62 383 -186c70.667 -105.333 106 -249.333 106 -432h-774
c1.33301 -92.667 24 -166.334 68 -221.001c49.333 -61.333 119 -92 209 -92c61.333 0 115.833 15.667 163.5 47s77.167 75.666 88.5 132.999h233c-28.667 -117.333 -85.334 -207.5 -170.001 -270.5s-188.334 -94.5 -311.001 -94.5c-186 0 -312.333 65 -379 195
c-66.667 -130 -192.334 -195 -377.001 -195c-157.333 0 -279.333 56 -366 168c-80.667 101.333 -121 232.333 -121 393zM305.003 537.002c0 -254 90 -381 270 -381s270.333 127 271 381c0 98 -20.667 180.333 -62 247c-48 79.333 -117.667 119 -209 119
s-160.666 -39.667 -207.999 -119c-40.667 -66.667 -61.334 -149 -62.001 -247zM1034 623.002h541c-11.333 186.667 -103 280 -275 280c-76.667 0 -139.5 -27.333 -188.5 -82s-74.833 -120.667 -77.5 -198z" />
    <glyph glyph-name="Ydieresis" unicode="&#x178;" horiz-adv-x="1327" 
d="M-12 1462h297l387 -655l381 655h286l-546 -889v-573h-256v573zM373 1630v221h233v-221h-233zM725 1630v221h234v-221h-234z" />
    <glyph glyph-name="circumflex" unicode="&#x2c6;" horiz-adv-x="493" 
d="M-86 1204l219 293h227l222 -293h-191l-145 185l-144 -185h-188z" />
    <glyph glyph-name="tilde" unicode="&#x2dc;" horiz-adv-x="493" 
d="M-115 1219c9.33301 60 31.3369 111.666 66.0039 154.999c40.667 50.667 89.667 76 147 76c45.333 0 99.666 -13 162.999 -39s106.666 -39 129.999 -39c52 0 86.333 30 103 90h114c-24.667 -157.333 -100.334 -235.666 -227.001 -234.999
c-31.333 0 -80.833 12.667 -148.5 38s-115.834 38 -144.501 38c-23.333 0 -43.5 -9 -60.5 -27s-25.5 -37 -25.5 -57h-117z" />
    <glyph glyph-name="uni2000" unicode="&#x2000;" horiz-adv-x="974" 
 />
    <glyph glyph-name="uni2001" unicode="&#x2001;" horiz-adv-x="1949" 
 />
    <glyph glyph-name="uni2002" unicode="&#x2002;" horiz-adv-x="974" 
 />
    <glyph glyph-name="uni2003" unicode="&#x2003;" horiz-adv-x="1949" 
 />
    <glyph glyph-name="uni2004" unicode="&#x2004;" horiz-adv-x="649" 
 />
    <glyph glyph-name="uni2005" unicode="&#x2005;" horiz-adv-x="487" 
 />
    <glyph glyph-name="uni2006" unicode="&#x2006;" horiz-adv-x="324" 
 />
    <glyph glyph-name="uni2007" unicode="&#x2007;" horiz-adv-x="324" 
 />
    <glyph glyph-name="uni2008" unicode="&#x2008;" horiz-adv-x="243" 
 />
    <glyph glyph-name="uni2009" unicode="&#x2009;" horiz-adv-x="389" 
 />
    <glyph glyph-name="uni200A" unicode="&#x200a;" horiz-adv-x="108" 
 />
    <glyph glyph-name="uni2010" unicode="&#x2010;" horiz-adv-x="796" 
d="M100 446v222h596v-222h-596z" />
    <glyph glyph-name="uni2011" unicode="&#x2011;" horiz-adv-x="796" 
d="M100 446v222h596v-222h-596z" />
    <glyph glyph-name="figuredash" unicode="&#x2012;" horiz-adv-x="796" 
d="M100 446v222h596v-222h-596z" />
    <glyph glyph-name="endash" unicode="&#x2013;" horiz-adv-x="1024" 
d="M0 446v222h1024v-222h-1024z" />
    <glyph glyph-name="emdash" unicode="&#x2014;" horiz-adv-x="2048" 
d="M0 446v222h2048v-222h-2048z" />
    <glyph glyph-name="quoteleft" unicode="&#x2018;" horiz-adv-x="569" 
d="M158 885l0.000976562 276.001c0 74 25 139 75 195c45.333 48.667 105.666 84 180.999 106v-119c-83.333 -28.667 -125 -89.334 -125 -182.001h125v-276h-256z" />
    <glyph glyph-name="quoteright" unicode="&#x2019;" horiz-adv-x="569" 
d="M158 885v118.999c83.333 10.667 125 71.334 125 182.001h-125v276h256v-276c0 -79.333 -23.167 -147 -69.5 -203s-108.5 -88.667 -186.5 -98z" />
    <glyph glyph-name="quotesinglbase" unicode="&#x201a;" horiz-adv-x="569" 
d="M158 0v275.999h256v-276c0 -74 -25.333 -139 -76 -195c-44.667 -48.667 -104.667 -84 -180 -106v119c83.333 28.667 125 89.334 125 182.001h-125z" />
    <glyph glyph-name="quotedblleft" unicode="&#x201c;" horiz-adv-x="909" 
d="M123 885v276.001c0 74 25.333 139 76 195c44.667 48.667 104.667 84 180 106v-119c-83.333 -28.667 -125 -89.334 -125 -182.001h125v-276h-256zM530 885.001l-0.000976562 276.001c0 74 25.333 139 76 195c44.667 48.667 104.667 84 180 106v-119
c-83.333 -28.667 -124.666 -89.334 -123.999 -182.001h124v-276h-256z" />
    <glyph glyph-name="quotedblright" unicode="&#x201d;" horiz-adv-x="909" 
d="M123 885v118.999c83.333 28.667 125 89.334 125 182.001h-125v276h256v-276c0 -74 -25.333 -138.333 -76 -193c-44.667 -50 -104.667 -86 -180 -108zM530 884.999l-0.000976562 118.999c83.333 28.667 125 89.334 125 182.001h-125v276h256v-276
c0 -74 -25 -138.333 -75 -193c-45.333 -50 -105.666 -86 -180.999 -108z" />
    <glyph glyph-name="quotedblbase" unicode="&#x201e;" horiz-adv-x="909" 
d="M123 0v275.999h256v-276c0 -74 -25.333 -139 -76 -195c-44.667 -48.667 -104.667 -84 -180 -106v119c83.333 28.667 125 89.334 125 182.001h-125zM530 -0.000976562l-0.000976562 275.999h256v-276c0 -74 -25 -139 -75 -195c-45.333 -48.667 -105.666 -84 -180.999 -106
v119c83.333 28.667 125 89.334 125 182.001h-125z" />
    <glyph glyph-name="bullet" unicode="&#x2022;" horiz-adv-x="1024" 
d="M147 731c0 101.333 35.5 187.5 106.5 258.5s157.167 106.5 258.5 106.5s187.833 -35.5 259.5 -106.5s107.5 -157.167 107.5 -258.5s-35.833 -187.666 -107.5 -258.999s-158.167 -107 -259.5 -107s-187.5 35.667 -258.5 107s-106.5 157.666 -106.5 258.999z" />
    <glyph glyph-name="ellipsis" unicode="&#x2026;" horiz-adv-x="2048" 
d="M199 0v276h284v-276h-284zM881 0v276h284v-276h-284zM1563 0v276h284v-276h-284z" />
    <glyph glyph-name="uni202F" unicode="&#x202f;" horiz-adv-x="389" 
 />
    <glyph glyph-name="guilsinglleft" unicode="&#x2039;" horiz-adv-x="530" 
d="M102 442v230l318 252v-211l-195 -156l195 -156v-211z" />
    <glyph glyph-name="guilsinglright" unicode="&#x203a;" horiz-adv-x="530" 
d="M111 190v211l194 156l-194 156v211l317 -252v-230z" />
    <glyph glyph-name="uni205F" unicode="&#x205f;" horiz-adv-x="487" 
 />
    <glyph glyph-name="trademark" unicode="&#x2122;" horiz-adv-x="2027" 
d="M121 1329v133h680v-133h-258v-711h-164v711h-258zM973 618v844h237l232 -598l229 598h236v-844h-154v660h-4l-252 -660h-115l-252 660h-4v-660h-153z" />
    <glyph glyph-name="uni25FC" unicode="&#x25fc;" horiz-adv-x="1054" 
d="M0 0v1055h1055v-1055h-1055z" />
    <glyph glyph-name="glyph1" horiz-adv-x="0" 
 />
  </font>
</defs>
</svg>
